<svg xmlns="http://www.w3.org/2000/svg" viewBox="0 -0.5 512 512" shape-rendering="crispEdges">
<metadata>Made with Pixels to Svg https://codepen.io/shshaw/pen/XbxvNj</metadata>
<path stroke="rgba(153,153,153,0.0196078431372549)" d="M128 52h1M385 52h1M62 98h1M451 98h1M52 128h1M461 128h1" />
<path stroke="rgba(158,158,158,0.13333333333333333)" d="M129 52h1M52 129h1" />
<path stroke="rgba(161,161,161,0.26666666666666666)" d="M130 52h1M383 52h1" />
<path stroke="rgba(161,161,161,0.39215686274509803)" d="M131 52h1M382 52h1" />
<path stroke="rgba(161,161,161,0.5098039215686274)" d="M132 52h1M381 52h1" />
<path stroke="rgba(162,162,162,0.6)" d="M133 52h1" />
<path stroke="rgba(161,161,161,0.6823529411764706)" d="M134 52h1M379 52h1M54 121h1" />
<path stroke="rgba(161,161,161,0.7568627450980392)" d="M135 52h1M378 52h1M399 56h1" />
<path stroke="rgba(161,161,161,0.8313725490196079)" d="M136 52h1M377 52h1M52 136h1" />
<path stroke="rgba(161,161,161,0.8823529411764706)" d="M137 52h1M376 52h1M60 104h1M52 137h1M461 137h1" />
<path stroke="rgba(161,161,161,0.9333333333333333)" d="M138 52h2M374 52h2" />
<path stroke="rgba(161,161,161,0.9725490196078431)" d="M140 52h1M373 52h1M89 69h1" />
<path stroke="#a1a1a1" d="M141 52h56M206 52h93M325 52h48M129 53h68M206 53h93M325 53h60M123 54h74M206 54h93M325 54h66M119 55h78M206 55h93M325 55h70M116 56h81M206 56h93M325 56h73M113 57h84M206 57h93M325 57h76M110 58h87M206 58h93M325 58h79M107 59h90M206 59h93M325 59h82M105 60h92M206 60h93M325 60h84M103 61h94M215 61h51M274 61h17M334 61h77M101 62h96M215 62h51M274 62h17M334 62h79M99 63h98M215 63h51M274 63h17M334 63h81M97 64h100M215 64h51M274 64h17M334 64h83M96 65h101M215 65h51M274 65h17M334 65h84M94 66h103M215 66h51M274 66h17M334 66h86M93 67h104M215 67h51M274 67h17M334 67h87M91 68h106M215 68h51M274 68h17M334 68h89M90 69h176M274 69h150M88 70h178M274 70h152M87 71h179M274 71h153M86 72h180M274 72h154M85 73h181M274 73h155M83 74h183M274 74h157M82 75h184M274 75h158M81 76h185M274 76h159M80 77h186M274 77h160M79 78h41M129 78h51M189 78h77M283 78h76M420 78h15M78 79h42M129 79h51M189 79h77M283 79h76M420 79h16M77 80h43M129 80h51M189 80h77M283 80h76M420 80h17M76 81h44M129 81h51M189 81h77M283 81h76M420 81h18M75 82h45M129 82h51M189 82h77M283 82h76M420 82h19M74 83h46M129 83h51M189 83h77M283 83h76M420 83h20M74 84h46M129 84h51M189 84h77M283 84h76M420 84h20M73 85h47M129 85h51M189 85h77M283 85h76M420 85h21M72 86h22M129 86h128M283 86h60M71 87h23M129 87h128M283 87h60M70 88h24M129 88h128M283 88h60M70 89h24M129 89h128M283 89h60M69 90h25M129 90h128M283 90h60M68 91h26M129 91h128M283 91h60M445 91h1M68 92h26M129 92h128M283 92h60M445 92h1M67 93h27M129 93h128M283 93h60M445 93h2M66 94h20M138 94h77M223 94h34M283 94h85M411 94h37M66 95h20M138 95h77M223 95h34M283 95h85M411 95h37M65 96h21M138 96h77M223 96h34M283 96h85M411 96h38M64 97h22M138 97h77M223 97h34M283 97h85M411 97h39M64 98h22M138 98h77M223 98h34M283 98h85M411 98h39M63 99h23M138 99h77M223 99h34M283 99h85M411 99h40M63 100h23M138 100h77M223 100h34M283 100h85M411 100h40M62 101h24M138 101h77M223 101h34M283 101h85M411 101h41M62 102h24M138 102h77M223 102h34M283 102h85M411 102h41M61 103h17M154 103h61M223 103h34M291 103h162M61 104h17M154 104h61M223 104h34M291 104h162M60 105h18M154 105h61M223 105h34M291 105h163M60 106h18M154 106h61M223 106h34M291 106h163M59 107h19M154 107h61M223 107h34M291 107h164M59 108h19M154 108h61M223 108h34M291 108h164M59 109h19M154 109h61M223 109h34M291 109h164M58 110h20M154 110h61M223 110h34M291 110h165M58 111h20M154 111h61M223 111h34M291 111h165M58 112h54M163 112h52M231 112h26M291 112h165M57 113h55M163 113h52M231 113h26M291 113h166M57 114h55M163 114h52M231 114h26M291 114h166M57 115h55M163 115h52M231 115h26M291 115h166M56 116h56M163 116h52M231 116h26M291 116h167M56 117h56M163 117h52M231 117h26M291 117h167M56 118h56M163 118h52M231 118h26M291 118h167M55 119h57M163 119h52M231 119h26M291 119h168M55 120h57M163 120h43M231 120h26M291 120h43M359 120h100M55 121h57M163 121h43M231 121h26M291 121h43M359 121h100M55 122h57M163 122h43M231 122h26M291 122h43M359 122h100M54 123h58M163 123h43M231 123h26M291 123h43M359 123h101M54 124h58M163 124h43M231 124h26M291 124h43M359 124h101M54 125h58M163 125h43M231 125h26M291 125h43M359 125h101M54 126h58M163 126h43M231 126h26M291 126h43M359 126h101M54 127h58M163 127h43M231 127h26M291 127h43M359 127h101M54 128h58M163 128h43M231 128h26M291 128h43M359 128h101M53 129h50M154 129h43M231 129h17M299 129h26M368 129h34M411 129h50M53 130h50M154 130h43M231 130h17M299 130h26M368 130h34M411 130h50M53 131h50M154 131h43M231 131h17M299 131h26M368 131h34M411 131h50M53 132h50M154 132h43M231 132h17M299 132h26M368 132h34M411 132h50M53 133h50M154 133h43M231 133h17M299 133h26M368 133h34M411 133h50M53 134h50M154 134h43M231 134h17M299 134h26M368 134h34M411 134h50M53 135h50M154 135h43M231 135h17M299 135h26M368 135h34M411 135h50M53 136h50M154 136h43M231 136h17M299 136h26M368 136h34M411 136h50M53 137h50M154 137h43M231 137h17M299 137h26M368 137h34M411 137h50M53 138h41M154 138h43M231 138h26M299 138h69M376 138h26M420 138h16M53 139h41M154 139h43M231 139h26M299 139h69M376 139h26M420 139h16M52 140h42M154 140h43M231 140h26M299 140h69M376 140h26M420 140h16M52 141h42M154 141h43M231 141h26M299 141h69M376 141h26M420 141h16M52 142h42M154 142h43M231 142h26M299 142h69M376 142h26M420 142h16M52 143h42M154 143h43M231 143h26M299 143h69M376 143h26M420 143h16M52 144h42M154 144h43M231 144h26M299 144h69M376 144h26M420 144h16M52 145h42M154 145h43M231 145h26M299 145h69M376 145h26M420 145h16M52 146h51M154 146h43M231 146h26M299 146h18M325 146h34M385 146h17M420 146h8M52 147h51M154 147h43M231 147h26M299 147h18M325 147h34M385 147h17M420 147h8M52 148h51M154 148h43M231 148h26M299 148h18M325 148h34M385 148h17M420 148h8M52 149h51M154 149h43M231 149h26M299 149h18M325 149h34M385 149h17M420 149h8M52 150h51M154 150h43M231 150h26M299 150h18M325 150h34M385 150h17M420 150h8M52 151h51M154 151h43M231 151h26M299 151h18M325 151h34M385 151h17M420 151h8M52 152h51M154 152h43M231 152h26M299 152h18M325 152h34M385 152h17M420 152h8M52 153h51M154 153h43M231 153h26M299 153h18M325 153h34M385 153h17M420 153h8M52 154h60M163 154h34M231 154h26M291 154h26M325 154h34M385 154h17M420 154h42M52 155h60M163 155h34M231 155h26M291 155h26M325 155h34M385 155h17M420 155h42M52 156h60M163 156h34M231 156h26M291 156h26M325 156h34M385 156h17M420 156h42M52 157h60M163 157h34M231 157h26M291 157h26M325 157h34M385 157h17M420 157h42M52 158h60M163 158h34M231 158h26M291 158h26M325 158h34M385 158h17M420 158h42M52 159h60M163 159h34M231 159h26M291 159h26M325 159h34M385 159h17M420 159h42M52 160h60M163 160h34M231 160h26M291 160h26M325 160h34M385 160h17M420 160h42M52 161h60M163 161h34M231 161h26M291 161h26M325 161h34M385 161h17M420 161h42M52 162h60M163 162h34M231 162h26M291 162h26M325 162h34M385 162h17M420 162h42M52 163h68M171 163h18M231 163h26M283 163h68M376 163h18M428 163h34M52 164h68M171 164h18M231 164h26M283 164h68M376 164h18M428 164h34M52 165h68M171 165h18M231 165h26M283 165h68M376 165h18M428 165h34M52 166h68M171 166h18M231 166h26M283 166h68M376 166h18M428 166h34M52 167h68M171 167h18M231 167h26M283 167h68M376 167h18M428 167h34M52 168h68M171 168h18M231 168h26M283 168h68M376 168h18M428 168h34M52 169h68M171 169h18M231 169h26M283 169h68M376 169h18M428 169h34M52 170h68M171 170h18M231 170h26M283 170h68M376 170h18M428 170h34M69 171h69M180 171h9M231 171h17M283 171h68M376 171h18M428 171h34M69 172h69M180 172h9M231 172h17M283 172h68M376 172h18M428 172h34M69 173h69M180 173h9M231 173h17M283 173h68M376 173h18M428 173h34M69 174h69M180 174h9M231 174h17M283 174h68M376 174h18M428 174h34M69 175h69M180 175h9M231 175h17M283 175h68M376 175h18M428 175h34M69 176h69M180 176h9M231 176h17M283 176h68M376 176h18M428 176h34M69 177h69M180 177h9M231 177h17M283 177h68M376 177h18M428 177h34M69 178h69M180 178h9M231 178h17M283 178h68M376 178h18M428 178h34M69 179h69M180 179h9M231 179h17M283 179h68M376 179h18M428 179h34M78 180h60M223 180h25M274 180h17M299 180h52M376 180h9M436 180h26M78 181h60M223 181h25M274 181h17M299 181h52M376 181h9M436 181h26M78 182h60M223 182h25M274 182h17M299 182h52M376 182h9M436 182h26M78 183h60M223 183h25M274 183h17M299 183h52M376 183h9M436 183h26M78 184h60M223 184h25M274 184h17M299 184h52M376 184h9M436 184h26M78 185h60M223 185h25M274 185h17M299 185h52M376 185h9M436 185h26M78 186h60M223 186h25M274 186h17M299 186h52M376 186h9M436 186h26M78 187h60M223 187h25M274 187h17M299 187h52M376 187h9M436 187h26M78 188h60M223 188h25M274 188h17M299 188h52M376 188h9M436 188h26M112 189h34M223 189h25M274 189h9M299 189h52M376 189h9M445 189h17M112 190h34M223 190h25M274 190h9M299 190h52M376 190h9M445 190h17M112 191h34M223 191h25M274 191h9M299 191h52M376 191h9M445 191h17M112 192h34M223 192h25M274 192h9M299 192h52M376 192h9M445 192h17M112 193h34M223 193h25M274 193h9M299 193h52M376 193h9M445 193h17M112 194h34M223 194h25M274 194h9M299 194h52M376 194h9M445 194h17M112 195h34M223 195h25M274 195h9M299 195h52M376 195h9M445 195h17M112 196h34M223 196h25M274 196h9M299 196h52M376 196h9M445 196h17M94 197h60M215 197h33M274 197h9M308 197h35M453 197h9M94 198h60M215 198h33M274 198h9M308 198h35M453 198h9M94 199h60M215 199h33M274 199h9M308 199h35M453 199h9M94 200h60M215 200h33M274 200h9M308 200h35M453 200h9M94 201h60M215 201h33M274 201h9M308 201h35M453 201h9M94 202h60M215 202h33M274 202h9M308 202h35M453 202h9M94 203h60M215 203h33M274 203h9M308 203h35M453 203h9M94 204h60M215 204h33M274 204h9M308 204h35M453 204h9M94 205h60M215 205h33M274 205h9M308 205h35M453 205h9M52 206h17M78 206h16M103 206h60M215 206h25M266 206h17M317 206h26M368 206h8M445 206h17M52 207h17M78 207h16M103 207h60M215 207h25M266 207h17M317 207h26M368 207h8M445 207h17M52 208h17M78 208h16M103 208h60M215 208h25M266 208h17M317 208h26M368 208h8M445 208h17M52 209h17M78 209h16M103 209h60M215 209h25M266 209h17M317 209h26M368 209h8M445 209h17M52 210h17M78 210h16M103 210h60M215 210h25M266 210h17M317 210h26M368 210h8M445 210h17M52 211h17M78 211h16M103 211h60M215 211h25M266 211h17M317 211h26M368 211h8M445 211h17M52 212h17M78 212h16M103 212h60M215 212h25M266 212h17M317 212h26M368 212h8M445 212h17M52 213h17M78 213h16M103 213h60M215 213h25M266 213h17M317 213h26M368 213h8M445 213h17M52 214h17M78 214h16M103 214h60M215 214h25M266 214h17M317 214h26M368 214h8M445 214h17M52 215h17M78 215h8M112 215h51M215 215h25M266 215h17M325 215h9M420 215h42M52 216h17M78 216h8M112 216h51M215 216h25M266 216h17M325 216h9M420 216h42M52 217h17M78 217h8M112 217h51M215 217h25M266 217h17M325 217h9M420 217h42M52 218h17M78 218h8M112 218h51M215 218h25M266 218h17M325 218h9M420 218h42M52 219h17M78 219h8M112 219h51M215 219h25M266 219h17M325 219h9M420 219h42M52 220h17M78 220h8M112 220h51M215 220h25M266 220h17M325 220h9M420 220h42M52 221h17M78 221h8M112 221h51M215 221h25M266 221h17M325 221h9M420 221h42M52 222h17M78 222h8M112 222h51M215 222h25M266 222h17M325 222h9M420 222h42M52 223h17M120 223h43M215 223h25M266 223h17M411 223h34M52 224h17M120 224h43M215 224h25M266 224h17M411 224h34M52 225h17M120 225h43M215 225h25M266 225h17M411 225h34M52 226h17M120 226h43M215 226h25M266 226h17M411 226h34M52 227h17M120 227h43M215 227h25M266 227h17M411 227h34M52 228h17M120 228h43M215 228h25M266 228h17M411 228h34M52 229h17M120 229h43M215 229h25M266 229h17M411 229h34M52 230h17M120 230h43M215 230h25M266 230h17M411 230h34M52 231h17M138 231h8M215 231h16M266 231h17M402 231h34M52 232h17M138 232h8M215 232h16M266 232h17M402 232h34M52 233h17M138 233h8M215 233h16M266 233h17M402 233h34M52 234h17M138 234h8M215 234h16M266 234h17M402 234h34M52 235h17M138 235h8M215 235h16M266 235h17M402 235h34M52 236h17M138 236h8M215 236h16M266 236h17M402 236h34M52 237h17M138 237h8M215 237h16M266 237h17M402 237h34M52 238h17M138 238h8M215 238h16M266 238h17M402 238h34M52 239h17M138 239h8M215 239h16M266 239h17M402 239h34M52 240h17M171 240h9M223 240h8M257 240h26M385 240h9M411 240h51M52 241h17M171 241h9M223 241h8M257 241h26M385 241h9M411 241h51M52 242h17M171 242h9M223 242h8M257 242h26M385 242h9M411 242h51M52 243h17M171 243h9M223 243h8M257 243h26M385 243h9M411 243h51M52 244h17M171 244h9M223 244h8M257 244h26M385 244h9M411 244h51M52 245h17M171 245h9M223 245h8M257 245h26M385 245h9M411 245h51M52 246h17M171 246h9M223 246h8M257 246h26M385 246h9M411 246h51M52 247h17M171 247h9M223 247h8M257 247h26M385 247h9M411 247h51M52 248h17M103 248h9M171 248h9M257 248h26M376 248h9M411 248h51M52 249h17M103 249h9M171 249h9M257 249h26M376 249h9M411 249h51M52 250h17M103 250h9M171 250h9M257 250h26M376 250h9M411 250h51M52 251h17M103 251h9M171 251h9M257 251h26M376 251h9M411 251h51M52 252h17M103 252h9M171 252h9M257 252h26M376 252h9M411 252h51M52 253h17M103 253h9M171 253h9M257 253h26M376 253h9M411 253h51M52 254h17M103 254h9M171 254h9M257 254h26M376 254h9M411 254h51M52 255h17M103 255h9M171 255h9M257 255h26M376 255h9M411 255h51M52 256h17M103 256h9M171 256h9M257 256h26M376 256h9M411 256h51M52 257h17M180 257h9M257 257h17M420 257h42M52 258h17M180 258h9M257 258h17M420 258h42M52 259h17M180 259h9M257 259h17M420 259h42M52 260h17M180 260h9M257 260h17M420 260h42M52 261h17M180 261h9M257 261h17M420 261h42M52 262h17M180 262h9M257 262h17M420 262h42M52 263h17M180 263h9M257 263h17M420 263h42M52 264h17M180 264h9M257 264h17M420 264h42M52 265h17M180 265h9M257 265h17M420 265h42M52 266h9M189 266h8M257 266h17M420 266h42M52 267h9M189 267h8M257 267h17M420 267h42M52 268h9M189 268h8M257 268h17M420 268h42M52 269h9M189 269h8M257 269h17M420 269h42M52 270h9M189 270h8M257 270h17M420 270h42M52 271h9M189 271h8M257 271h17M420 271h42M52 272h9M189 272h8M257 272h17M420 272h42M52 273h9M189 273h8M257 273h17M420 273h42M52 274h9M189 274h8M248 274h18M428 274h34M52 275h9M189 275h8M248 275h18M428 275h34M52 276h9M189 276h8M248 276h18M428 276h34M52 277h9M189 277h8M248 277h18M428 277h34M52 278h9M189 278h8M248 278h18M428 278h34M52 279h9M189 279h8M248 279h18M428 279h34M52 280h9M189 280h8M248 280h18M428 280h34M52 281h9M189 281h8M248 281h18M428 281h34M52 282h9M189 282h8M248 282h18M428 282h34M52 283h9M197 283h9M248 283h9M420 283h42M52 284h9M197 284h9M248 284h9M420 284h42M52 285h9M197 285h9M248 285h9M420 285h42M52 286h9M197 286h9M248 286h9M420 286h42M52 287h9M197 287h9M248 287h9M420 287h42M52 288h9M197 288h9M248 288h9M420 288h42M52 289h9M197 289h9M248 289h9M420 289h42M52 290h9M197 290h9M248 290h9M420 290h42M52 291h17M52 292h17M52 293h17M52 294h17M52 295h17M52 296h17M52 297h17M52 298h17M52 299h17M52 300h17M52 301h17M52 302h17M52 303h17M52 304h17M52 305h17M52 306h17M52 307h17M52 308h9M52 309h9M52 310h9M52 311h9M52 312h9M52 313h9M52 314h9M52 315h9M52 316h9" />
<path stroke="#ffffff" d="M197 52h9M299 52h26M197 53h9M299 53h26M197 54h9M299 54h26M197 55h9M299 55h26M197 56h9M299 56h26M197 57h9M299 57h26M197 58h9M299 58h26M197 59h9M299 59h26M197 60h9M299 60h26M197 61h18M291 61h43M197 62h18M291 62h43M197 63h18M291 63h43M197 64h18M291 64h43M197 65h18M291 65h43M197 66h18M291 66h43M197 67h18M291 67h43M197 68h18M291 68h43M359 78h61M359 79h61M359 80h61M359 81h61M359 82h61M359 83h61M359 84h61M359 85h61M94 86h26M343 86h99M94 87h26M343 87h100M94 88h26M343 88h101M94 89h26M343 89h101M94 90h26M343 90h102M94 91h26M343 91h102M94 92h26M343 92h102M94 93h26M343 93h102M86 94h34M368 94h43M86 95h34M368 95h43M86 96h34M368 96h43M86 97h34M368 97h43M86 98h34M368 98h43M86 99h34M368 99h43M86 100h34M368 100h43M86 101h34M368 101h43M86 102h34M368 102h43M78 103h34M138 103h8M78 104h34M138 104h8M78 105h34M138 105h8M78 106h34M138 106h8M78 107h34M138 107h8M78 108h34M138 108h8M78 109h34M138 109h8M78 110h34M138 110h8M78 111h34M138 111h8M334 120h25M334 121h25M334 122h25M334 123h25M334 124h25M334 125h25M334 126h25M334 127h25M334 128h25M325 129h43M325 130h43M325 131h43M325 132h43M325 133h43M325 134h43M325 135h43M325 136h43M325 137h43M436 138h25M436 139h25M436 140h25M436 141h26M436 142h26M436 143h26M436 144h26M436 145h26M428 146h8M445 146h17M428 147h8M445 147h17M428 148h8M445 148h17M428 149h8M445 149h17M428 150h8M445 150h17M428 151h8M445 151h17M428 152h8M445 152h17M428 153h8M445 153h17M52 171h9M52 172h9M52 173h9M52 174h9M52 175h9M52 176h9M52 177h9M52 178h9M52 179h9M52 180h26M52 181h26M52 182h26M52 183h26M52 184h26M52 185h26M52 186h26M52 187h26M52 188h26M52 189h60M52 190h60M52 191h60M52 192h60M52 193h60M52 194h60M52 195h60M52 196h60M52 197h42M52 198h42M52 199h42M52 200h42M52 201h42M52 202h42M52 203h42M52 204h42M52 205h42M445 223h17M445 224h17M445 225h17M445 226h17M445 227h17M445 228h17M445 229h17M445 230h17M436 231h26M436 232h26M436 233h26M436 234h26M436 235h26M436 236h26M436 237h26M436 238h26M436 239h26" />
<path stroke="rgba(161,161,161,0.6039215686274509)" d="M380 52h1M52 133h1" />
<path stroke="rgba(163,163,163,0.1411764705882353)" d="M384 52h1M461 129h1" />
<path stroke="rgba(162,162,162,0.12941176470588237)" d="M123 53h1M390 53h1" />
<path stroke="rgba(161,161,161,0.3176470588235294)" d="M124 53h1M97 63h1M416 63h1M460 124h1" />
<path stroke="rgba(162,162,162,0.49411764705882355)" d="M125 53h1M53 125h1M460 125h1" />
<path stroke="rgba(161,161,161,0.6705882352941176)" d="M126 53h1M53 126h1M460 126h1" />
<path stroke="rgba(161,161,161,0.8509803921568627)" d="M127 53h1M450 98h1" />
<path stroke="rgba(161,161,161,0.9882352941176471)" d="M128 53h1M385 53h1M112 57h1M401 57h1M57 112h1M456 112h1M53 128h1M460 128h1" />
<path stroke="rgba(161,161,161,0.8588235294117647)" d="M386 53h1M98 63h1M415 63h1M453 104h1" />
<path stroke="rgba(161,161,161,0.6941176470588235)" d="M387 53h1M87 70h1M75 81h1M438 81h1M70 87h1" />
<path stroke="rgba(160,160,160,0.5176470588235295)" d="M388 53h1M65 94h1" />
<path stroke="rgba(161,161,161,0.32941176470588235)" d="M389 53h1M84 72h1M429 72h1" />
<path stroke="rgba(128,128,128,0.00784313725490196)" d="M118 54h1M395 54h1M54 118h1M459 118h1" />
<path stroke="rgba(160,160,160,0.2)" d="M119 54h1M394 54h1M107 58h1M406 58h1" />
<path stroke="rgba(160,160,160,0.44313725490196076)" d="M120 54h1M393 54h1M54 120h1" />
<path stroke="rgba(161,161,161,0.6901960784313725)" d="M121 54h1M392 54h1" />
<path stroke="rgba(161,161,161,0.9058823529411765)" d="M122 54h1M391 54h1M102 61h1M54 122h1" />
<path stroke="rgba(158,158,158,0.08235294117647059)" d="M115 55h1M398 55h1" />
<path stroke="rgba(162,162,162,0.3764705882352941)" d="M116 55h1M397 55h1M110 57h1M403 57h1" />
<path stroke="rgba(161,161,161,0.6666666666666666)" d="M117 55h1M396 55h1M459 121h1" />
<path stroke="rgba(161,161,161,0.9294117647058824)" d="M118 55h1M395 55h1" />
<path stroke="rgba(166,166,166,0.09019607843137255)" d="M112 56h1M401 56h1M56 112h1" />
<path stroke="rgba(161,161,161,0.41568627450980394)" d="M113 56h1M400 56h1M414 62h1M451 99h1" />
<path stroke="rgba(161,161,161,0.7529411764705882)" d="M114 56h1M461 135h1" />
<path stroke="rgba(161,161,161,0.9921568627450981)" d="M115 56h1M398 56h1M56 115h1M457 115h1" />
<path stroke="rgba(153,153,153,0.0392156862745098)" d="M109 57h1M404 57h1M102 60h1M420 65h1M90 67h1M423 67h1M75 80h1M438 80h1M67 90h1M446 90h1M448 93h1M60 102h1M57 109h1" />
<path stroke="rgba(161,161,161,0.7372549019607844)" d="M111 57h1M96 64h1M57 111h1" />
<path stroke="rgba(161,161,161,0.7411764705882353)" d="M402 57h1M456 111h1" />
<path stroke="rgba(162,162,162,0.5882352941176471)" d="M108 58h1M74 82h1M439 82h1M58 108h1M455 108h1" />
<path stroke="rgba(162,162,162,0.9411764705882353)" d="M109 58h1M404 58h1M58 109h1M52 138h1" />
<path stroke="rgba(160,160,160,0.592156862745098)" d="M405 58h1M82 74h1" />
<path stroke="rgba(170,170,170,0.011764705882352941)" d="M104 59h1M409 59h1M81 74h1M74 81h1M439 81h1M454 104h1" />
<path stroke="rgba(162,162,162,0.3333333333333333)" d="M105 59h1M408 59h1" />
<path stroke="rgba(161,161,161,0.7803921568627451)" d="M106 59h1M79 77h1M434 77h1M59 106h1M454 106h1" />
<path stroke="rgba(161,161,161,0.7843137254901961)" d="M407 59h1M77 79h1" />
<path stroke="rgba(161,161,161,0.42745098039215684)" d="M103 60h1M410 60h1M453 103h1" />
<path stroke="rgba(162,162,162,0.8666666666666667)" d="M104 60h1M409 60h1M447 93h1" />
<path stroke="rgba(162,162,162,0.043137254901960784)" d="M411 60h1M453 102h1M456 109h1" />
<path stroke="rgba(159,159,159,0.03137254901960784)" d="M100 61h1M65 93h1M61 100h1" />
<path stroke="rgba(161,161,161,0.43529411764705883)" d="M101 61h1M412 61h1M61 101h1M459 120h1" />
<path stroke="#592b2b" d="M266 61h8M266 62h8M266 63h8M266 64h8M266 65h8M266 66h8M266 67h8M266 68h8M266 69h8M266 70h8M266 71h8M266 72h8M266 73h8M266 74h8M266 75h8M266 76h8M266 77h8M120 78h9M180 78h9M266 78h17M120 79h9M180 79h9M266 79h17M120 80h9M180 80h9M266 80h17M120 81h9M180 81h9M266 81h17M120 82h9M180 82h9M266 82h17M120 83h9M180 83h9M266 83h17M120 84h9M180 84h9M266 84h17M120 85h9M180 85h9M266 85h17M120 86h9M257 86h9M274 86h9M120 87h9M257 87h9M274 87h9M120 88h9M257 88h9M274 88h9M120 89h9M257 89h9M274 89h9M120 90h9M257 90h9M274 90h9M120 91h9M257 91h9M274 91h9M120 92h9M257 92h9M274 92h9M120 93h9M257 93h9M274 93h9M120 94h18M215 94h8M257 94h9M274 94h9M120 95h18M215 95h8M257 95h9M274 95h9M120 96h18M215 96h8M257 96h9M274 96h9M120 97h18M215 97h8M257 97h9M274 97h9M120 98h18M215 98h8M257 98h9M274 98h9M120 99h18M215 99h8M257 99h9M274 99h9M120 100h18M215 100h8M257 100h9M274 100h9M120 101h18M215 101h8M257 101h9M274 101h9M120 102h18M215 102h8M257 102h9M274 102h9M112 103h26M146 103h8M215 103h8M257 103h9M283 103h8M112 104h26M146 104h8M215 104h8M257 104h9M283 104h8M112 105h26M146 105h8M215 105h8M257 105h9M283 105h8M112 106h26M146 106h8M215 106h8M257 106h9M283 106h8M112 107h26M146 107h8M215 107h8M257 107h9M283 107h8M112 108h26M146 108h8M215 108h8M257 108h9M283 108h8M112 109h26M146 109h8M215 109h8M257 109h9M283 109h8M112 110h26M146 110h8M215 110h8M257 110h9M283 110h8M112 111h26M146 111h8M215 111h8M257 111h9M283 111h8M112 112h8M129 112h17M154 112h9M215 112h16M257 112h9M283 112h8M112 113h8M129 113h17M154 113h9M215 113h16M257 113h9M283 113h8M112 114h8M129 114h17M154 114h9M215 114h16M257 114h9M283 114h8M112 115h8M129 115h17M154 115h9M215 115h16M257 115h9M283 115h8M112 116h8M129 116h17M154 116h9M215 116h16M257 116h9M283 116h8M112 117h8M129 117h17M154 117h9M215 117h16M257 117h9M283 117h8M112 118h8M129 118h17M154 118h9M215 118h16M257 118h9M283 118h8M112 119h8M129 119h17M154 119h9M215 119h16M257 119h9M283 119h8M112 120h8M138 120h8M154 120h9M206 120h9M223 120h8M257 120h9M283 120h8M112 121h8M138 121h8M154 121h9M206 121h9M223 121h8M257 121h9M283 121h8M112 122h8M138 122h8M154 122h9M206 122h9M223 122h8M257 122h9M283 122h8M112 123h8M138 123h8M154 123h9M206 123h9M223 123h8M257 123h9M283 123h8M112 124h8M138 124h8M154 124h9M206 124h9M223 124h8M257 124h9M283 124h8M112 125h8M138 125h8M154 125h9M206 125h9M223 125h8M257 125h9M283 125h8M112 126h8M138 126h8M154 126h9M206 126h9M223 126h8M257 126h9M283 126h8M112 127h8M138 127h8M154 127h9M206 127h9M223 127h8M257 127h9M283 127h8M112 128h8M138 128h8M154 128h9M206 128h9M223 128h8M257 128h9M283 128h8M103 129h9M146 129h8M197 129h9M223 129h8M248 129h18M283 129h16M402 129h9M103 130h9M146 130h8M197 130h9M223 130h8M248 130h18M283 130h16M402 130h9M103 131h9M146 131h8M197 131h9M223 131h8M248 131h18M283 131h16M402 131h9M103 132h9M146 132h8M197 132h9M223 132h8M248 132h18M283 132h16M402 132h9M103 133h9M146 133h8M197 133h9M223 133h8M248 133h18M283 133h16M402 133h9M103 134h9M146 134h8M197 134h9M223 134h8M248 134h18M283 134h16M402 134h9M103 135h9M146 135h8M197 135h9M223 135h8M248 135h18M283 135h16M402 135h9M103 136h9M146 136h8M197 136h9M223 136h8M248 136h18M283 136h16M402 136h9M103 137h9M146 137h8M197 137h9M223 137h8M248 137h18M283 137h16M402 137h9M94 138h9M146 138h8M197 138h9M223 138h8M257 138h9M291 138h8M368 138h8M402 138h18M94 139h9M146 139h8M197 139h9M223 139h8M257 139h9M291 139h8M368 139h8M402 139h18M94 140h9M146 140h8M197 140h9M223 140h8M257 140h9M291 140h8M368 140h8M402 140h18M94 141h9M146 141h8M197 141h9M223 141h8M257 141h9M291 141h8M368 141h8M402 141h18M94 142h9M146 142h8M197 142h9M223 142h8M257 142h9M291 142h8M368 142h8M402 142h18M94 143h9M146 143h8M197 143h9M223 143h8M257 143h9M291 143h8M368 143h8M402 143h18M94 144h9M146 144h8M197 144h9M223 144h8M257 144h9M291 144h8M368 144h8M402 144h18M94 145h9M146 145h8M197 145h9M223 145h8M257 145h9M291 145h8M368 145h8M402 145h18M103 146h9M146 146h8M197 146h9M223 146h8M257 146h9M291 146h8M317 146h8M359 146h9M376 146h9M402 146h18M436 146h9M103 147h9M146 147h8M197 147h9M223 147h8M257 147h9M291 147h8M317 147h8M359 147h9M376 147h9M402 147h18M436 147h9M103 148h9M146 148h8M197 148h9M223 148h8M257 148h9M291 148h8M317 148h8M359 148h9M376 148h9M402 148h18M436 148h9M103 149h9M146 149h8M197 149h9M223 149h8M257 149h9M291 149h8M317 149h8M359 149h9M376 149h9M402 149h18M436 149h9M103 150h9M146 150h8M197 150h9M223 150h8M257 150h9M291 150h8M317 150h8M359 150h9M376 150h9M402 150h18M436 150h9M103 151h9M146 151h8M197 151h9M223 151h8M257 151h9M291 151h8M317 151h8M359 151h9M376 151h9M402 151h18M436 151h9M103 152h9M146 152h8M197 152h9M223 152h8M257 152h9M291 152h8M317 152h8M359 152h9M376 152h9M402 152h18M436 152h9M103 153h9M146 153h8M197 153h9M223 153h8M257 153h9M291 153h8M317 153h8M359 153h9M376 153h9M402 153h18M436 153h9M112 154h8M154 154h9M197 154h9M223 154h8M257 154h9M283 154h8M317 154h8M359 154h9M376 154h9M402 154h18M112 155h8M154 155h9M197 155h9M223 155h8M257 155h9M283 155h8M317 155h8M359 155h9M376 155h9M402 155h18M112 156h8M154 156h9M197 156h9M223 156h8M257 156h9M283 156h8M317 156h8M359 156h9M376 156h9M402 156h18M112 157h8M154 157h9M197 157h9M223 157h8M257 157h9M283 157h8M317 157h8M359 157h9M376 157h9M402 157h18M112 158h8M154 158h9M197 158h9M223 158h8M257 158h9M283 158h8M317 158h8M359 158h9M376 158h9M402 158h18M112 159h8M154 159h9M197 159h9M223 159h8M257 159h9M283 159h8M317 159h8M359 159h9M376 159h9M402 159h18M112 160h8M154 160h9M197 160h9M223 160h8M257 160h9M283 160h8M317 160h8M359 160h9M376 160h9M402 160h18M112 161h8M154 161h9M197 161h9M223 161h8M257 161h9M283 161h8M317 161h8M359 161h9M376 161h9M402 161h18M112 162h8M154 162h9M197 162h9M223 162h8M257 162h9M283 162h8M317 162h8M359 162h9M376 162h9M402 162h18M120 163h18M163 163h8M189 163h8M223 163h8M257 163h9M274 163h9M351 163h8M368 163h8M394 163h8M411 163h17M120 164h18M163 164h8M189 164h8M223 164h8M257 164h9M274 164h9M351 164h8M368 164h8M394 164h8M411 164h17M120 165h18M163 165h8M189 165h8M223 165h8M257 165h9M274 165h9M351 165h8M368 165h8M394 165h8M411 165h17M120 166h18M163 166h8M189 166h8M223 166h8M257 166h9M274 166h9M351 166h8M368 166h8M394 166h8M411 166h17M120 167h18M163 167h8M189 167h8M223 167h8M257 167h9M274 167h9M351 167h8M368 167h8M394 167h8M411 167h17M120 168h18M163 168h8M189 168h8M223 168h8M257 168h9M274 168h9M351 168h8M368 168h8M394 168h8M411 168h17M120 169h18M163 169h8M189 169h8M223 169h8M257 169h9M274 169h9M351 169h8M368 169h8M394 169h8M411 169h17M120 170h18M163 170h8M189 170h8M223 170h8M257 170h9M274 170h9M351 170h8M368 170h8M394 170h8M411 170h17M61 171h8M138 171h8M171 171h9M189 171h8M215 171h16M248 171h9M274 171h9M351 171h8M368 171h8M394 171h8M420 171h8M61 172h8M138 172h8M171 172h9M189 172h8M215 172h16M248 172h9M274 172h9M351 172h8M368 172h8M394 172h8M420 172h8M61 173h8M138 173h8M171 173h9M189 173h8M215 173h16M248 173h9M274 173h9M351 173h8M368 173h8M394 173h8M420 173h8M61 174h8M138 174h8M171 174h9M189 174h8M215 174h16M248 174h9M274 174h9M351 174h8M368 174h8M394 174h8M420 174h8M61 175h8M138 175h8M171 175h9M189 175h8M215 175h16M248 175h9M274 175h9M351 175h8M368 175h8M394 175h8M420 175h8M61 176h8M138 176h8M171 176h9M189 176h8M215 176h16M248 176h9M274 176h9M351 176h8M368 176h8M394 176h8M420 176h8M61 177h8M138 177h8M171 177h9M189 177h8M215 177h16M248 177h9M274 177h9M351 177h8M368 177h8M394 177h8M420 177h8M61 178h8M138 178h8M171 178h9M189 178h8M215 178h16M248 178h9M274 178h9M351 178h8M368 178h8M394 178h8M420 178h8M61 179h8M138 179h8M171 179h9M189 179h8M215 179h16M248 179h9M274 179h9M351 179h8M368 179h8M394 179h8M420 179h8M138 180h8M171 180h18M215 180h8M248 180h9M266 180h8M291 180h8M351 180h8M368 180h8M385 180h17M420 180h16M138 181h8M171 181h18M215 181h8M248 181h9M266 181h8M291 181h8M351 181h8M368 181h8M385 181h17M420 181h16M138 182h8M171 182h18M215 182h8M248 182h9M266 182h8M291 182h8M351 182h8M368 182h8M385 182h17M420 182h16M138 183h8M171 183h18M215 183h8M248 183h9M266 183h8M291 183h8M351 183h8M368 183h8M385 183h17M420 183h16M138 184h8M171 184h18M215 184h8M248 184h9M266 184h8M291 184h8M351 184h8M368 184h8M385 184h17M420 184h16M138 185h8M171 185h18M215 185h8M248 185h9M266 185h8M291 185h8M351 185h8M368 185h8M385 185h17M420 185h16M138 186h8M171 186h18M215 186h8M248 186h9M266 186h8M291 186h8M351 186h8M368 186h8M385 186h17M420 186h16M138 187h8M171 187h18M215 187h8M248 187h9M266 187h8M291 187h8M351 187h8M368 187h8M385 187h17M420 187h16M138 188h8M171 188h18M215 188h8M248 188h9M266 188h8M291 188h8M351 188h8M368 188h8M385 188h17M420 188h16M146 189h8M180 189h9M215 189h8M248 189h9M266 189h8M283 189h16M351 189h8M368 189h8M385 189h9M436 189h9M146 190h8M180 190h9M215 190h8M248 190h9M266 190h8M283 190h16M351 190h8M368 190h8M385 190h9M436 190h9M146 191h8M180 191h9M215 191h8M248 191h9M266 191h8M283 191h16M351 191h8M368 191h8M385 191h9M436 191h9M146 192h8M180 192h9M215 192h8M248 192h9M266 192h8M283 192h16M351 192h8M368 192h8M385 192h9M436 192h9M146 193h8M180 193h9M215 193h8M248 193h9M266 193h8M283 193h16M351 193h8M368 193h8M385 193h9M436 193h9M146 194h8M180 194h9M215 194h8M248 194h9M266 194h8M283 194h16M351 194h8M368 194h8M385 194h9M436 194h9M146 195h8M180 195h9M215 195h8M248 195h9M266 195h8M283 195h16M351 195h8M368 195h8M385 195h9M436 195h9M146 196h8M180 196h9M215 196h8M248 196h9M266 196h8M283 196h16M351 196h8M368 196h8M385 196h9M436 196h9M154 197h9M206 197h9M248 197h9M266 197h8M283 197h25M343 197h8M368 197h26M445 197h8M154 198h9M206 198h9M248 198h9M266 198h8M283 198h25M343 198h8M368 198h26M445 198h8M154 199h9M206 199h9M248 199h9M266 199h8M283 199h25M343 199h8M368 199h26M445 199h8M154 200h9M206 200h9M248 200h9M266 200h8M283 200h25M343 200h8M368 200h26M445 200h8M154 201h9M206 201h9M248 201h9M266 201h8M283 201h25M343 201h8M368 201h26M445 201h8M154 202h9M206 202h9M248 202h9M266 202h8M283 202h25M343 202h8M368 202h26M445 202h8M154 203h9M206 203h9M248 203h9M266 203h8M283 203h25M343 203h8M368 203h26M445 203h8M154 204h9M206 204h9M248 204h9M266 204h8M283 204h25M343 204h8M368 204h26M445 204h8M154 205h9M206 205h9M248 205h9M266 205h8M283 205h25M343 205h8M368 205h26M445 205h8M69 206h9M94 206h9M163 206h8M206 206h9M240 206h8M257 206h9M283 206h8M299 206h18M343 206h8M359 206h9M376 206h9M420 206h25M69 207h9M94 207h9M163 207h8M206 207h9M240 207h8M257 207h9M283 207h8M299 207h18M343 207h8M359 207h9M376 207h9M420 207h25M69 208h9M94 208h9M163 208h8M206 208h9M240 208h8M257 208h9M283 208h8M299 208h18M343 208h8M359 208h9M376 208h9M420 208h25M69 209h9M94 209h9M163 209h8M206 209h9M240 209h8M257 209h9M283 209h8M299 209h18M343 209h8M359 209h9M376 209h9M420 209h25M69 210h9M94 210h9M163 210h8M206 210h9M240 210h8M257 210h9M283 210h8M299 210h18M343 210h8M359 210h9M376 210h9M420 210h25M69 211h9M94 211h9M163 211h8M206 211h9M240 211h8M257 211h9M283 211h8M299 211h18M343 211h8M359 211h9M376 211h9M420 211h25M69 212h9M94 212h9M163 212h8M206 212h9M240 212h8M257 212h9M283 212h8M299 212h18M343 212h8M359 212h9M376 212h9M420 212h25M69 213h9M94 213h9M163 213h8M206 213h9M240 213h8M257 213h9M283 213h8M299 213h18M343 213h8M359 213h9M376 213h9M420 213h25M69 214h9M94 214h9M163 214h8M206 214h9M240 214h8M257 214h9M283 214h8M299 214h18M343 214h8M359 214h9M376 214h9M420 214h25M69 215h9M86 215h8M103 215h9M163 215h8M197 215h18M240 215h8M257 215h9M283 215h8M308 215h17M334 215h9M351 215h34M411 215h9M69 216h9M86 216h8M103 216h9M163 216h8M197 216h18M240 216h8M257 216h9M283 216h8M308 216h17M334 216h9M351 216h34M411 216h9M69 217h9M86 217h8M103 217h9M163 217h8M197 217h18M240 217h8M257 217h9M283 217h8M308 217h17M334 217h9M351 217h34M411 217h9M69 218h9M86 218h8M103 218h9M163 218h8M197 218h18M240 218h8M257 218h9M283 218h8M308 218h17M334 218h9M351 218h34M411 218h9M69 219h9M86 219h8M103 219h9M163 219h8M197 219h18M240 219h8M257 219h9M283 219h8M308 219h17M334 219h9M351 219h34M411 219h9M69 220h9M86 220h8M103 220h9M163 220h8M197 220h18M240 220h8M257 220h9M283 220h8M308 220h17M334 220h9M351 220h34M411 220h9M69 221h9M86 221h8M103 221h9M163 221h8M197 221h18M240 221h8M257 221h9M283 221h8M308 221h17M334 221h9M351 221h34M411 221h9M69 222h9M86 222h8M103 222h9M163 222h8M197 222h18M240 222h8M257 222h9M283 222h8M308 222h17M334 222h9M351 222h34M411 222h9M69 223h25M103 223h17M163 223h8M206 223h9M240 223h8M257 223h9M283 223h8M317 223h26M351 223h17M402 223h9M69 224h25M103 224h17M163 224h8M206 224h9M240 224h8M257 224h9M283 224h8M317 224h26M351 224h17M402 224h9M69 225h25M103 225h17M163 225h8M206 225h9M240 225h8M257 225h9M283 225h8M317 225h26M351 225h17M402 225h9M69 226h25M103 226h17M163 226h8M206 226h9M240 226h8M257 226h9M283 226h8M317 226h26M351 226h17M402 226h9M69 227h25M103 227h17M163 227h8M206 227h9M240 227h8M257 227h9M283 227h8M317 227h26M351 227h17M402 227h9M69 228h25M103 228h17M163 228h8M206 228h9M240 228h8M257 228h9M283 228h8M317 228h26M351 228h17M402 228h9M69 229h25M103 229h17M163 229h8M206 229h9M240 229h8M257 229h9M283 229h8M317 229h26M351 229h17M402 229h9M69 230h25M103 230h17M163 230h8M206 230h9M240 230h8M257 230h9M283 230h8M317 230h26M351 230h17M402 230h9M69 231h9M86 231h17M120 231h18M146 231h34M206 231h9M231 231h9M257 231h9M283 231h8M385 231h17M69 232h9M86 232h17M120 232h18M146 232h34M206 232h9M231 232h9M257 232h9M283 232h8M385 232h17M69 233h9M86 233h17M120 233h18M146 233h34M206 233h9M231 233h9M257 233h9M283 233h8M385 233h17M69 234h9M86 234h17M120 234h18M146 234h34M206 234h9M231 234h9M257 234h9M283 234h8M385 234h17M69 235h9M86 235h17M120 235h18M146 235h34M206 235h9M231 235h9M257 235h9M283 235h8M385 235h17M69 236h9M86 236h17M120 236h18M146 236h34M206 236h9M231 236h9M257 236h9M283 236h8M385 236h17M69 237h9M86 237h17M120 237h18M146 237h34M206 237h9M231 237h9M257 237h9M283 237h8M385 237h17M69 238h9M86 238h17M120 238h18M146 238h34M206 238h9M231 238h9M257 238h9M283 238h8M385 238h17M69 239h9M86 239h17M120 239h18M146 239h34M206 239h9M231 239h9M257 239h9M283 239h8M385 239h17M69 240h9M86 240h26M129 240h25M163 240h8M180 240h9M215 240h8M231 240h9M248 240h9M283 240h8M376 240h9M394 240h17M69 241h9M86 241h26M129 241h25M163 241h8M180 241h9M215 241h8M231 241h9M248 241h9M283 241h8M376 241h9M394 241h17M69 242h9M86 242h26M129 242h25M163 242h8M180 242h9M215 242h8M231 242h9M248 242h9M283 242h8M376 242h9M394 242h17M69 243h9M86 243h26M129 243h25M163 243h8M180 243h9M215 243h8M231 243h9M248 243h9M283 243h8M376 243h9M394 243h17M69 244h9M86 244h26M129 244h25M163 244h8M180 244h9M215 244h8M231 244h9M248 244h9M283 244h8M376 244h9M394 244h17M69 245h9M86 245h26M129 245h25M163 245h8M180 245h9M215 245h8M231 245h9M248 245h9M283 245h8M376 245h9M394 245h17M69 246h9M86 246h26M129 246h25M163 246h8M180 246h9M215 246h8M231 246h9M248 246h9M283 246h8M376 246h9M394 246h17M69 247h9M86 247h26M129 247h25M163 247h8M180 247h9M215 247h8M231 247h9M248 247h9M283 247h8M376 247h9M394 247h17M69 248h9M94 248h9M112 248h8M163 248h8M180 248h9M223 248h17M248 248h9M283 248h8M359 248h17M385 248h26M69 249h9M94 249h9M112 249h8M163 249h8M180 249h9M223 249h17M248 249h9M283 249h8M359 249h17M385 249h26M69 250h9M94 250h9M112 250h8M163 250h8M180 250h9M223 250h17M248 250h9M283 250h8M359 250h17M385 250h26M69 251h9M94 251h9M112 251h8M163 251h8M180 251h9M223 251h17M248 251h9M283 251h8M359 251h17M385 251h26M69 252h9M94 252h9M112 252h8M163 252h8M180 252h9M223 252h17M248 252h9M283 252h8M359 252h17M385 252h26M69 253h9M94 253h9M112 253h8M163 253h8M180 253h9M223 253h17M248 253h9M283 253h8M359 253h17M385 253h26M69 254h9M94 254h9M112 254h8M163 254h8M180 254h9M223 254h17M248 254h9M283 254h8M359 254h17M385 254h26M69 255h9M94 255h9M112 255h8M163 255h8M180 255h9M223 255h17M248 255h9M283 255h8M359 255h17M385 255h26M69 256h9M94 256h9M112 256h8M163 256h8M180 256h9M223 256h17M248 256h9M283 256h8M359 256h17M385 256h26M69 257h9M94 257h44M163 257h17M189 257h8M223 257h8M248 257h9M274 257h17M343 257h51M402 257h18M69 258h9M94 258h44M163 258h17M189 258h8M223 258h8M248 258h9M274 258h17M343 258h51M402 258h18M69 259h9M94 259h44M163 259h17M189 259h8M223 259h8M248 259h9M274 259h17M343 259h51M402 259h18M69 260h9M94 260h44M163 260h17M189 260h8M223 260h8M248 260h9M274 260h17M343 260h51M402 260h18M69 261h9M94 261h44M163 261h17M189 261h8M223 261h8M248 261h9M274 261h17M343 261h51M402 261h18M69 262h9M94 262h44M163 262h17M189 262h8M223 262h8M248 262h9M274 262h17M343 262h51M402 262h18M69 263h9M94 263h44M163 263h17M189 263h8M223 263h8M248 263h9M274 263h17M343 263h51M402 263h18M69 264h9M94 264h44M163 264h17M189 264h8M223 264h8M248 264h9M274 264h17M343 264h51M402 264h18M69 265h9M94 265h44M163 265h17M189 265h8M223 265h8M248 265h9M274 265h17M343 265h51M402 265h18M61 266h8M180 266h9M197 266h9M240 266h17M274 266h9M411 266h9M61 267h8M180 267h9M197 267h9M240 267h17M274 267h9M411 267h9M61 268h8M180 268h9M197 268h9M240 268h17M274 268h9M411 268h9M61 269h8M180 269h9M197 269h9M240 269h17M274 269h9M411 269h9M61 270h8M180 270h9M197 270h9M240 270h17M274 270h9M411 270h9M61 271h8M180 271h9M197 271h9M240 271h17M274 271h9M411 271h9M61 272h8M180 272h9M197 272h9M240 272h17M274 272h9M411 272h9M61 273h8M180 273h9M197 273h9M240 273h17M274 273h9M411 273h9M61 274h8M112 274h17M180 274h9M197 274h9M240 274h8M266 274h17M325 274h69M420 274h8M61 275h8M112 275h17M180 275h9M197 275h9M240 275h8M266 275h17M325 275h69M420 275h8M61 276h8M112 276h17M180 276h9M197 276h9M240 276h8M266 276h17M325 276h69M420 276h8M61 277h8M112 277h17M180 277h9M197 277h9M240 277h8M266 277h17M325 277h69M420 277h8M61 278h8M112 278h17M180 278h9M197 278h9M240 278h8M266 278h17M325 278h69M420 278h8M61 279h8M112 279h17M180 279h9M197 279h9M240 279h8M266 279h17M325 279h69M420 279h8M61 280h8M112 280h17M180 280h9M197 280h9M240 280h8M266 280h17M325 280h69M420 280h8M61 281h8M112 281h17M180 281h9M197 281h9M240 281h8M266 281h17M325 281h69M420 281h8M61 282h8M112 282h17M180 282h9M197 282h9M240 282h8M266 282h17M325 282h69M420 282h8M61 283h8M94 283h18M129 283h17M189 283h8M206 283h9M240 283h8M257 283h17M308 283h17M394 283h26M61 284h8M94 284h18M129 284h17M189 284h8M206 284h9M240 284h8M257 284h17M308 284h17M394 284h26M61 285h8M94 285h18M129 285h17M189 285h8M206 285h9M240 285h8M257 285h17M308 285h17M394 285h26M61 286h8M94 286h18M129 286h17M189 286h8M206 286h9M240 286h8M257 286h17M308 286h17M394 286h26M61 287h8M94 287h18M129 287h17M189 287h8M206 287h9M240 287h8M257 287h17M308 287h17M394 287h26M61 288h8M94 288h18M129 288h17M189 288h8M206 288h9M240 288h8M257 288h17M308 288h17M394 288h26M61 289h8M94 289h18M129 289h17M189 289h8M206 289h9M240 289h8M257 289h17M308 289h17M394 289h26M61 290h8M94 290h18M129 290h17M189 290h8M206 290h9M240 290h8M257 290h17M308 290h17M394 290h26M69 291h25M146 291h17M197 291h18M240 291h8M257 291h9M317 291h17M69 292h25M146 292h17M197 292h18M240 292h8M257 292h9M317 292h17M69 293h25M146 293h17M197 293h18M240 293h8M257 293h9M317 293h17M69 294h25M146 294h17M197 294h18M240 294h8M257 294h9M317 294h17M69 295h25M146 295h17M197 295h18M240 295h8M257 295h9M317 295h17M69 296h25M146 296h17M197 296h18M240 296h8M257 296h9M317 296h17M69 297h25M146 297h17M197 297h18M240 297h8M257 297h9M317 297h17M69 298h25M146 298h17M197 298h18M240 298h8M257 298h9M317 298h17M138 299h8M163 299h8M206 299h17M240 299h26M291 299h26M325 299h9M138 300h8M163 300h8M206 300h17M240 300h26M291 300h26M325 300h9M138 301h8M163 301h8M206 301h17M240 301h26M291 301h26M325 301h9M138 302h8M163 302h8M206 302h17M240 302h26M291 302h26M325 302h9M138 303h8M163 303h8M206 303h17M240 303h26M291 303h26M325 303h9M138 304h8M163 304h8M206 304h17M240 304h26M291 304h26M325 304h9M138 305h8M163 305h8M206 305h17M240 305h26M291 305h26M325 305h9M138 306h8M163 306h8M206 306h17M240 306h26M291 306h26M325 306h9M138 307h8M163 307h8M206 307h17M240 307h26M291 307h26M325 307h9M146 308h8M240 308h17M283 308h16M146 309h8M240 309h17M283 309h16M146 310h8M240 310h17M283 310h16M146 311h8M240 311h17M283 311h16M146 312h8M240 312h17M283 312h16M146 313h8M240 313h17M283 313h16M146 314h8M240 314h17M283 314h16M146 315h8M240 315h17M283 315h16M146 316h8M240 316h17M283 316h16M154 317h35M248 317h9M283 317h8M343 317h16M154 318h35M248 318h9M283 318h8M343 318h16M154 319h35M248 319h9M283 319h8M343 319h16M154 320h35M248 320h9M283 320h8M343 320h16M154 321h35M248 321h9M283 321h8M343 321h16M154 322h35M248 322h9M283 322h8M343 322h16M154 323h35M248 323h9M283 323h8M343 323h16M154 324h35M248 324h9M283 324h8M343 324h16M189 325h8M248 325h9M274 325h17M343 325h8M189 326h8M248 326h9M274 326h17M343 326h8M189 327h8M248 327h9M274 327h17M343 327h8M189 328h8M248 328h9M274 328h17M343 328h8M189 329h8M248 329h9M274 329h17M343 329h8M189 330h8M248 330h9M274 330h17M343 330h8M189 331h8M248 331h9M274 331h17M343 331h8M189 332h8M248 332h9M274 332h17M343 332h8M189 333h8M248 333h9M274 333h17M343 333h8M189 334h8M274 334h9M334 334h17M385 334h9M189 335h8M274 335h9M334 335h17M385 335h9M189 336h8M274 336h9M334 336h17M385 336h9M189 337h8M274 337h9M334 337h17M385 337h9M189 338h8M274 338h9M334 338h17M385 338h9M189 339h8M274 339h9M334 339h17M385 339h9M189 340h8M274 340h9M334 340h17M385 340h9M189 341h8M274 341h9M334 341h17M385 341h9M189 342h8M274 342h9M334 342h17M385 342h9M197 343h9M274 343h9M325 343h18M197 344h9M274 344h9M325 344h18M197 345h9M274 345h9M325 345h18M197 346h9M274 346h9M325 346h18M197 347h9M274 347h9M325 347h18M197 348h9M274 348h9M325 348h18M197 349h9M274 349h9M325 349h18M197 350h9M274 350h9M325 350h18M197 351h9M274 351h17M325 351h18M197 352h9M274 352h17M325 352h18M197 353h9M274 353h17M325 353h18M197 354h9M274 354h17M325 354h18M197 355h9M274 355h17M325 355h18M197 356h9M274 356h17M325 356h18M197 357h9M274 357h17M325 357h18M197 358h9M274 358h17M325 358h18M146 359h8M206 359h9M283 359h16M308 359h17M334 359h9M146 360h8M206 360h9M283 360h16M308 360h17M334 360h9M146 361h8M206 361h9M283 361h16M308 361h17M334 361h9M146 362h8M206 362h9M283 362h16M308 362h17M334 362h9M146 363h8M206 363h9M283 363h16M308 363h17M334 363h9M146 364h8M206 364h9M283 364h16M308 364h17M334 364h9M146 365h8M206 365h9M283 365h16M308 365h17M334 365h9M146 366h8M206 366h9M283 366h16M308 366h17M334 366h9M146 367h8M206 367h9M283 367h16M308 367h17M334 367h9M206 368h9M291 368h26M325 368h18M368 368h8M206 369h9M291 369h26M325 369h18M368 369h8M206 370h9M291 370h26M325 370h18M368 370h8M206 371h9M291 371h26M325 371h18M368 371h8M206 372h9M291 372h26M325 372h18M368 372h8M206 373h9M291 373h26M325 373h18M368 373h8M206 374h9M291 374h26M325 374h18M368 374h8M206 375h9M291 375h26M325 375h18M368 375h8M206 376h9M317 376h8M359 376h17M206 377h9M317 377h8M359 377h17M206 378h9M317 378h8M359 378h17M206 379h9M317 379h8M359 379h17M206 380h9M317 380h8M359 380h17M206 381h9M317 381h8M359 381h17M206 382h9M317 382h8M359 382h17M206 383h9M317 383h8M359 383h17M206 384h9M317 384h8M359 384h17M163 385h8M215 385h8M317 385h8M359 385h17M163 386h8M215 386h8M317 386h8M359 386h17M163 387h8M215 387h8M317 387h8M359 387h17M163 388h8M215 388h8M317 388h8M359 388h17M163 389h8M215 389h8M317 389h8M359 389h17M163 390h8M215 390h8M317 390h8M359 390h17M163 391h8M215 391h8M317 391h8M359 391h17M163 392h8M215 392h8M317 392h8M359 392h17M163 393h8M215 393h8M317 393h8M359 393h17M163 394h17M215 394h8M317 394h8M359 394h17M163 395h17M215 395h8M317 395h8M359 395h17M163 396h17M215 396h8M317 396h8M359 396h17M163 397h17M215 397h8M317 397h8M359 397h17M163 398h17M215 398h8M317 398h8M359 398h17M163 399h17M215 399h8M317 399h8M359 399h17M163 400h17M215 400h8M317 400h8M359 400h17M163 401h17M215 401h8M317 401h8M359 401h17M163 402h17M215 402h8M317 402h17M351 402h8M368 402h17M163 403h17M215 403h8M317 403h17M351 403h8M368 403h17M163 404h17M215 404h8M317 404h17M351 404h8M368 404h17M163 405h17M215 405h8M317 405h17M351 405h8M368 405h17M163 406h17M215 406h8M317 406h17M351 406h8M368 406h17M163 407h17M215 407h8M317 407h17M351 407h8M368 407h17M163 408h17M215 408h8M317 408h17M351 408h8M368 408h17M163 409h17M215 409h8M317 409h17M351 409h8M368 409h17M163 410h17M215 410h8M317 410h17M351 410h8M368 410h17M154 411h9M180 411h9M215 411h8M325 411h34M376 411h9M154 412h9M180 412h9M215 412h8M325 412h34M376 412h9M154 413h9M180 413h9M215 413h8M325 413h34M376 413h9M154 414h9M180 414h9M215 414h8M325 414h34M376 414h9M154 415h9M180 415h9M215 415h8M325 415h34M376 415h9M154 416h9M180 416h9M215 416h8M325 416h34M376 416h9M154 417h9M180 417h9M215 417h8M325 417h34M376 417h9M154 418h9M180 418h9M215 418h8M325 418h34M376 418h9M154 419h9M180 419h9M215 419h8M325 419h34M376 419h9M154 420h9M180 420h17M206 420h9M334 420h17M376 420h18M154 421h9M180 421h17M206 421h9M334 421h17M376 421h18M154 422h9M180 422h17M206 422h9M334 422h17M376 422h18M154 423h9M180 423h17M206 423h9M334 423h17M376 423h18M154 424h9M180 424h17M206 424h9M334 424h17M376 424h18M154 425h9M180 425h17M206 425h9M334 425h17M376 425h18M154 426h9M180 426h17M206 426h9M334 426h17M376 426h18M154 427h9M180 427h17M206 427h9M334 427h17M376 427h18M146 428h8M197 428h18M334 428h17M385 428h9M146 429h8M197 429h18M334 429h17M385 429h9M146 430h8M197 430h18M334 430h17M385 430h9M146 431h8M197 431h18M334 431h17M385 431h9M146 432h8M197 432h18M334 432h17M385 432h9M146 433h8M197 433h18M334 433h17M385 433h9M146 434h8M197 434h18M334 434h17M385 434h9M146 435h8M197 435h18M334 435h17M385 435h9M146 436h8M385 436h9M146 437h8M385 437h9M146 438h8M385 438h9M146 439h8M385 439h9M146 440h8M385 440h9M146 441h8M385 441h9M146 442h8M385 442h9M146 443h8M385 443h9M146 444h8M385 444h9M146 445h8M385 445h17M146 446h8M385 446h17M146 447h8M385 447h17M146 448h8M385 448h17M146 449h8M385 449h17M146 450h8M385 450h17M146 451h8M385 451h17M146 452h8M385 452h17M138 453h8M394 453h8M138 454h8M394 454h8M138 455h8M394 455h8M138 456h8M394 456h7M138 457h8M394 457h4M138 458h8M394 458h1M138 459h8M138 460h8M141 461h5" />
<path stroke="rgba(160,160,160,0.9098039215686274)" d="M411 61h1M61 102h1M452 102h1" />
<path stroke="rgba(170,170,170,0.03529411764705882)" d="M413 61h1M93 65h1M80 75h1M433 75h1M452 100h1" />
<path stroke="rgba(170,170,170,0.023529411764705882)" d="M98 62h1M415 62h1" />
<path stroke="rgba(160,160,160,0.4117647058823529)" d="M99 62h1M56 113h1" />
<path stroke="rgba(161,161,161,0.8941176470588236)" d="M100 62h1M413 62h1M62 100h1M451 100h1M459 122h1" />
<path stroke="rgba(164,164,164,0.16470588235294117)" d="M95 64h1M418 64h1M449 95h1" />
<path stroke="rgba(161,161,161,0.7450980392156863)" d="M417 64h1M80 76h1M76 80h1" />
<path stroke="rgba(161,161,161,0.5333333333333333)" d="M94 65h1M419 65h1" />
<path stroke="rgba(161,161,161,0.9803921568627451)" d="M95 65h1M65 95h1M448 95h1" />
<path stroke="rgba(161,161,161,0.984313725490196)" d="M418 65h1" />
<path stroke="rgba(161,161,161,0.2549019607843137)" d="M92 66h1" />
<path stroke="rgba(161,161,161,0.8705882352941177)" d="M93 66h1M420 66h1" />
<path stroke="rgba(162,162,162,0.25882352941176473)" d="M421 66h1M52 130h1" />
<path stroke="rgba(161,161,161,0.5843137254901961)" d="M91 67h1M422 67h1M446 91h1" />
<path stroke="rgba(161,161,161,0.996078431372549)" d="M92 67h1M421 67h1M84 73h1M429 73h1M73 84h1M440 84h1M67 92h1M446 92h1" />
<path stroke="rgba(159,159,159,0.18823529411764706)" d="M89 68h1M442 85h1M68 89h1M445 89h1" />
<path stroke="rgba(161,161,161,0.8392156862745098)" d="M90 68h1M423 68h1M461 136h1" />
<path stroke="rgba(163,163,163,0.19607843137254902)" d="M424 68h1M455 107h1M54 119h1M459 119h1" />
<path stroke="rgba(255,255,255,0.00392156862745098)" d="M87 69h1M426 69h1M69 87h1M444 87h1" />
<path stroke="rgba(160,160,160,0.4549019607843137)" d="M88 69h1M425 69h1" />
<path stroke="rgba(161,161,161,0.9764705882352941)" d="M424 69h1M69 89h1" />
<path stroke="rgba(153,153,153,0.058823529411764705)" d="M86 70h1M77 78h1M437 79h1M70 86h1" />
<path stroke="rgba(160,160,160,0.6980392156862745)" d="M426 70h1" />
<path stroke="rgba(159,159,159,0.06274509803921569)" d="M427 70h1M78 77h1" />
<path stroke="rgba(162,162,162,0.17254901960784313)" d="M85 71h1" />
<path stroke="rgba(161,161,161,0.8549019607843137)" d="M86 71h1M427 71h1M71 86h1M460 127h1" />
<path stroke="rgba(159,159,159,0.17647058823529413)" d="M428 71h1" />
<path stroke="rgba(161,161,161,0.9529411764705882)" d="M85 72h1" />
<path stroke="rgba(161,161,161,0.9568627450980393)" d="M428 72h1M72 85h1" />
<path stroke="rgba(161,161,161,0.4588235294117647)" d="M83 73h1" />
<path stroke="rgba(162,162,162,0.4627450980392157)" d="M430 73h1" />
<path stroke="rgba(161,161,161,0.596078431372549)" d="M431 74h1" />
<path stroke="rgba(191,191,191,0.01568627450980392)" d="M432 74h1M59 104h1" />
<path stroke="rgba(161,161,161,0.7019607843137254)" d="M81 75h1M432 75h1" />
<path stroke="rgba(170,170,170,0.047058823529411764)" d="M79 76h1M76 79h1" />
<path stroke="rgba(162,162,162,0.7490196078431373)" d="M433 76h1M56 114h1M52 135h1" />
<path stroke="rgba(157,157,157,0.050980392156862744)" d="M434 76h1" />
<path stroke="rgba(165,165,165,0.06666666666666667)" d="M435 77h1" />
<path stroke="rgba(161,161,161,0.807843137254902)" d="M78 78h1" />
<path stroke="rgba(161,161,161,0.8117647058823529)" d="M435 78h1" />
<path stroke="rgba(156,156,156,0.07058823529411765)" d="M436 78h1" />
<path stroke="rgba(161,161,161,0.8)" d="M436 79h1" />
<path stroke="rgba(161,161,161,0.7725490196078432)" d="M437 80h1" />
<path stroke="rgba(162,162,162,0.47058823529411764)" d="M73 83h1M440 83h1" />
<path stroke="rgba(160,160,160,0.33725490196078434)" d="M72 84h1M59 105h1M454 105h1" />
<path stroke="rgba(161,161,161,0.3411764705882353)" d="M441 84h1" />
<path stroke="rgba(160,160,160,0.16862745098039217)" d="M71 85h1" />
<path stroke="rgba(161,161,161,0.9607843137254902)" d="M441 85h1M52 139h1" />
<path stroke="#823737" d="M266 86h8M266 87h8M266 88h8M266 89h8M266 90h8M266 91h8M266 92h8M266 93h8M266 94h8M266 95h8M266 96h8M266 97h8M266 98h8M266 99h8M266 100h8M266 101h8M266 102h8M266 103h17M266 104h17M266 105h17M266 106h17M266 107h17M266 108h17M266 109h17M266 110h17M266 111h17M120 112h9M274 112h9M120 113h9M274 113h9M120 114h9M274 114h9M120 115h9M274 115h9M120 116h9M274 116h9M120 117h9M274 117h9M120 118h9M274 118h9M120 119h9M274 119h9M120 120h18M215 120h8M120 121h18M215 121h8M120 122h18M215 122h8M120 123h18M215 123h8M120 124h18M215 124h8M120 125h18M215 125h8M120 126h18M215 126h8M120 127h18M215 127h8M120 128h18M215 128h8M112 129h8M129 129h9M215 129h8M112 130h8M129 130h9M215 130h8M112 131h8M129 131h9M215 131h8M112 132h8M129 132h9M215 132h8M112 133h8M129 133h9M215 133h8M112 134h8M129 134h9M215 134h8M112 135h8M129 135h9M215 135h8M112 136h8M129 136h9M215 136h8M112 137h8M129 137h9M215 137h8M129 138h9M215 138h8M129 139h9M215 139h8M129 140h9M215 140h8M129 141h9M215 141h8M129 142h9M215 142h8M129 143h9M215 143h8M129 144h9M215 144h8M129 145h9M215 145h8M215 146h8M215 147h8M215 148h8M215 149h8M215 150h8M215 151h8M215 152h8M215 153h8M215 154h8M215 155h8M215 156h8M215 157h8M215 158h8M215 159h8M215 160h8M215 161h8M215 162h8M206 163h17M402 163h9M206 164h17M402 164h9M206 165h17M402 165h9M206 166h17M402 166h9M206 167h17M402 167h9M206 168h17M402 168h9M206 169h17M402 169h9M206 170h17M402 170h9M206 171h9M402 171h18M206 172h9M402 172h18M206 173h9M402 173h18M206 174h9M402 174h18M206 175h9M402 175h18M206 176h9M402 176h18M206 177h9M402 177h18M206 178h9M402 178h18M206 179h9M402 179h18M206 180h9M402 180h18M206 181h9M402 181h18M206 182h9M402 182h18M206 183h9M402 183h18M206 184h9M402 184h18M206 185h9M402 185h18M206 186h9M402 186h18M206 187h9M402 187h18M206 188h9M402 188h18M206 189h9M394 189h8M420 189h16M206 190h9M394 190h8M420 190h16M206 191h9M394 191h8M420 191h16M206 192h9M394 192h8M420 192h16M206 193h9M394 193h8M420 193h16M206 194h9M394 194h8M420 194h16M206 195h9M394 195h8M420 195h16M206 196h9M394 196h8M420 196h16M197 197h9M394 197h8M197 198h9M394 198h8M197 199h9M394 199h8M197 200h9M394 200h8M197 201h9M394 201h8M197 202h9M394 202h8M197 203h9M394 203h8M197 204h9M394 204h8M197 205h9M394 205h8M197 206h9M291 206h8M385 206h9M197 207h9M291 207h8M385 207h9M197 208h9M291 208h8M385 208h9M197 209h9M291 209h8M385 209h9M197 210h9M291 210h8M385 210h9M197 211h9M291 211h8M385 211h9M197 212h9M291 212h8M385 212h9M197 213h9M291 213h8M385 213h9M197 214h9M291 214h8M385 214h9M291 215h17M291 216h17M291 217h17M291 218h17M291 219h17M291 220h17M291 221h17M291 222h17M291 223h26M291 224h26M291 225h26M291 226h26M291 227h26M291 228h26M291 229h26M291 230h26M78 231h8M291 231h8M308 231h26M78 232h8M291 232h8M308 232h26M78 233h8M291 233h8M308 233h26M78 234h8M291 234h8M308 234h26M78 235h8M291 235h8M308 235h26M78 236h8M291 236h8M308 236h26M78 237h8M291 237h8M308 237h26M78 238h8M291 238h8M308 238h26M78 239h8M291 239h8M308 239h26M78 240h8M154 240h9M291 240h8M317 240h8M78 241h8M154 241h9M291 241h8M317 241h8M78 242h8M154 242h9M291 242h8M317 242h8M78 243h8M154 243h9M291 243h8M317 243h8M78 244h8M154 244h9M291 244h8M317 244h8M78 245h8M154 245h9M291 245h8M317 245h8M78 246h8M154 246h9M291 246h8M317 246h8M78 247h8M154 247h9M291 247h8M317 247h8M78 248h16M146 248h17M291 248h8M78 249h16M146 249h17M291 249h8M78 250h16M146 250h17M291 250h8M78 251h16M146 251h17M291 251h8M78 252h16M146 252h17M291 252h8M78 253h16M146 253h17M291 253h8M78 254h16M146 254h17M291 254h8M78 255h16M146 255h17M291 255h8M78 256h16M146 256h17M291 256h8M78 257h16M394 257h8M78 258h16M394 258h8M78 259h16M394 259h8M78 260h16M394 260h8M78 261h16M394 261h8M78 262h16M394 262h8M78 263h16M394 263h8M78 264h16M394 264h8M78 265h16M394 265h8M69 266h9M94 266h18M163 266h8M402 266h9M69 267h9M94 267h18M163 267h8M402 267h9M69 268h9M94 268h18M163 268h8M402 268h9M69 269h9M94 269h18M163 269h8M402 269h9M69 270h9M94 270h18M163 270h8M402 270h9M69 271h9M94 271h18M163 271h8M402 271h9M69 272h9M94 272h18M163 272h8M402 272h9M69 273h9M94 273h18M163 273h8M402 273h9M69 274h17M69 275h17M69 276h17M69 277h17M69 278h17M69 279h17M69 280h17M69 281h17M69 282h17M325 359h9M325 360h9M325 361h9M325 362h9M325 363h9M325 364h9M325 365h9M325 366h9M325 367h9M283 368h8M317 368h8M283 369h8M317 369h8M283 370h8M317 370h8M283 371h8M317 371h8M283 372h8M317 372h8M283 373h8M317 373h8M283 374h8M317 374h8M283 375h8M317 375h8M283 376h34M283 377h34M283 378h34M283 379h34M283 380h34M283 381h34M283 382h34M283 383h34M283 384h34M299 385h18M299 386h18M299 387h18M299 388h18M299 389h18M299 390h18M299 391h18M299 392h18M299 393h18M308 394h9M308 395h9M308 396h9M308 397h9M308 398h9M308 399h9M308 400h9M308 401h9M308 402h9M359 402h9M308 403h9M359 403h9M308 404h9M359 404h9M308 405h9M359 405h9M308 406h9M359 406h9M308 407h9M359 407h9M308 408h9M359 408h9M308 409h9M359 409h9M308 410h9M359 410h9M163 411h17M308 411h17M359 411h17M163 412h17M308 412h17M359 412h17M163 413h17M308 413h17M359 413h17M163 414h17M308 414h17M359 414h17M163 415h17M308 415h17M359 415h17M163 416h17M308 416h17M359 416h17M163 417h17M308 417h17M359 417h17M163 418h17M308 418h17M359 418h17M163 419h17M308 419h17M359 419h17M163 420h17M308 420h26M351 420h25M163 421h17M308 421h26M351 421h25M163 422h17M308 422h26M351 422h25M163 423h17M308 423h26M351 423h25M163 424h17M308 424h26M351 424h25M163 425h17M308 425h26M351 425h25M163 426h17M308 426h26M351 426h25M163 427h17M308 427h26M351 427h25M154 428h43M325 428h9M351 428h8M368 428h17M154 429h43M325 429h9M351 429h8M368 429h17M154 430h43M325 430h9M351 430h8M368 430h17M154 431h43M325 431h9M351 431h8M368 431h17M154 432h43M325 432h9M351 432h8M368 432h17M154 433h43M325 433h9M351 433h8M368 433h17M154 434h43M325 434h9M351 434h8M368 434h17M154 435h43M325 435h9M351 435h8M368 435h17M154 436h17M180 436h26M343 436h16M376 436h9M154 437h17M180 437h26M343 437h16M376 437h9M154 438h17M180 438h26M343 438h16M376 438h9M154 439h17M180 439h26M343 439h16M376 439h9M154 440h17M180 440h26M343 440h16M376 440h9M154 441h17M180 441h26M343 441h16M376 441h9M154 442h17M180 442h26M343 442h16M376 442h9M154 443h17M180 443h26M343 443h16M376 443h9M154 444h17M180 444h26M343 444h16M376 444h9M154 445h9M180 445h17M376 445h9M154 446h9M180 446h17M376 446h9M154 447h9M180 447h17M376 447h9M154 448h9M180 448h17M376 448h9M154 449h9M180 449h17M376 449h9M154 450h9M180 450h17M376 450h9M154 451h9M180 451h17M376 451h9M154 452h9M180 452h17M376 452h9M146 453h17M189 453h8M146 454h17M189 454h8M146 455h17M189 455h8M146 456h17M189 456h8M146 457h17M189 457h8M146 458h17M189 458h8M146 459h17M189 459h8M146 460h17M189 460h8M146 461h17M189 461h8" />
<path stroke="rgba(255,255,255,0.8745098039215686)" d="M442 86h1" />
<path stroke="rgba(255,255,255,0.07058823529411765)" d="M443 86h1" />
<path stroke="rgba(255,255,255,0.7098039215686275)" d="M443 87h1" />
<path stroke="rgba(161,161,161,0.4470588235294118)" d="M69 88h1" />
<path stroke="rgba(255,255,255,0.4588235294117647)" d="M444 88h1" />
<path stroke="rgba(255,255,255,0.9764705882352941)" d="M444 89h1" />
<path stroke="rgba(160,160,160,0.8352941176470589)" d="M68 90h1" />
<path stroke="rgba(161,161,161,0.8431372549019608)" d="M445 90h1M63 98h1" />
<path stroke="rgba(161,161,161,0.5764705882352941)" d="M67 91h1" />
<path stroke="rgba(163,163,163,0.23921568627450981)" d="M66 92h1" />
<path stroke="rgba(160,160,160,0.2627450980392157)" d="M447 92h1" />
<path stroke="rgba(161,161,161,0.8470588235294118)" d="M66 93h1M53 127h1" />
<path stroke="rgba(160,160,160,0.5372549019607843)" d="M448 94h1" />
<path stroke="rgba(159,159,159,0.1568627450980392)" d="M64 95h1" />
<path stroke="rgba(162,162,162,0.7176470588235294)" d="M64 96h1" />
<path stroke="rgba(161,161,161,0.7254901960784313)" d="M449 96h1" />
<path stroke="rgba(160,160,160,0.29411764705882354)" d="M63 97h1M450 97h1" />
<path stroke="rgba(162,162,162,0.40784313725490196)" d="M62 99h1" />
<path stroke="rgba(162,162,162,0.4392156862745098)" d="M452 101h1" />
<path stroke="rgba(160,160,160,0.43137254901960786)" d="M60 103h1" />
<path stroke="rgba(161,161,161,0.19215686274509805)" d="M58 107h1" />
<path stroke="rgba(161,161,161,0.9450980392156862)" d="M455 109h1" />
<path stroke="rgba(161,161,161,0.37254901960784315)" d="M57 110h1" />
<path stroke="rgba(160,160,160,0.3803921568627451)" d="M456 110h1" />
<path stroke="#000000" d="M146 112h8M146 113h8M146 114h8M146 115h8M146 116h8M146 117h8M146 118h8M146 119h8M146 120h8M266 120h8M146 121h8M266 121h8M146 122h8M266 122h8M146 123h8M266 123h8M146 124h8M266 124h8M146 125h8M266 125h8M146 126h8M266 126h8M146 127h8M266 127h8M146 128h8M266 128h8M138 129h8M206 129h9M266 129h8M138 130h8M206 130h9M266 130h8M138 131h8M206 131h9M266 131h8M138 132h8M206 132h9M266 132h8M138 133h8M206 133h9M266 133h8M138 134h8M206 134h9M266 134h8M138 135h8M206 135h9M266 135h8M138 136h8M206 136h9M266 136h8M138 137h8M206 137h9M266 137h8M103 138h17M138 138h8M206 138h9M266 138h8M283 138h8M103 139h17M138 139h8M206 139h9M266 139h8M283 139h8M103 140h17M138 140h8M206 140h9M266 140h8M283 140h8M103 141h17M138 141h8M206 141h9M266 141h8M283 141h8M103 142h17M138 142h8M206 142h9M266 142h8M283 142h8M103 143h17M138 143h8M206 143h9M266 143h8M283 143h8M103 144h17M138 144h8M206 144h9M266 144h8M283 144h8M103 145h17M138 145h8M206 145h9M266 145h8M283 145h8M112 146h34M206 146h9M266 146h25M368 146h8M112 147h34M206 147h9M266 147h25M368 147h8M112 148h34M206 148h9M266 148h25M368 148h8M112 149h34M206 149h9M266 149h25M368 149h8M112 150h34M206 150h9M266 150h25M368 150h8M112 151h34M206 151h9M266 151h25M368 151h8M112 152h34M206 152h9M266 152h25M368 152h8M112 153h34M206 153h9M266 153h25M368 153h8M120 154h34M206 154h9M266 154h17M368 154h8M120 155h34M206 155h9M266 155h17M368 155h8M120 156h34M206 156h9M266 156h17M368 156h8M120 157h34M206 157h9M266 157h17M368 157h8M120 158h34M206 158h9M266 158h17M368 158h8M120 159h34M206 159h9M266 159h17M368 159h8M120 160h34M206 160h9M266 160h17M368 160h8M120 161h34M206 161h9M266 161h17M368 161h8M120 162h34M206 162h9M266 162h17M368 162h8M138 163h25M197 163h9M266 163h8M359 163h9M138 164h25M197 164h9M266 164h8M359 164h9M138 165h25M197 165h9M266 165h8M359 165h9M138 166h25M197 166h9M266 166h8M359 166h9M138 167h25M197 167h9M266 167h8M359 167h9M138 168h25M197 168h9M266 168h8M359 168h9M138 169h25M197 169h9M266 169h8M359 169h9M138 170h25M197 170h9M266 170h8M359 170h9M146 171h25M197 171h9M257 171h17M359 171h9M146 172h25M197 172h9M257 172h17M359 172h9M146 173h25M197 173h9M257 173h17M359 173h9M146 174h25M197 174h9M257 174h17M359 174h9M146 175h25M197 175h9M257 175h17M359 175h9M146 176h25M197 176h9M257 176h17M359 176h9M146 177h25M197 177h9M257 177h17M359 177h9M146 178h25M197 178h9M257 178h17M359 178h9M146 179h25M197 179h9M257 179h17M359 179h9M146 180h25M189 180h8M257 180h9M359 180h9M146 181h25M189 181h8M257 181h9M359 181h9M146 182h25M189 182h8M257 182h9M359 182h9M146 183h25M189 183h8M257 183h9M359 183h9M146 184h25M189 184h8M257 184h9M359 184h9M146 185h25M189 185h8M257 185h9M359 185h9M146 186h25M189 186h8M257 186h9M359 186h9M146 187h25M189 187h8M257 187h9M359 187h9M146 188h25M189 188h8M257 188h9M359 188h9M154 189h26M189 189h8M257 189h9M359 189h9M154 190h26M189 190h8M257 190h9M359 190h9M154 191h26M189 191h8M257 191h9M359 191h9M154 192h26M189 192h8M257 192h9M359 192h9M154 193h26M189 193h8M257 193h9M359 193h9M154 194h26M189 194h8M257 194h9M359 194h9M154 195h26M189 195h8M257 195h9M359 195h9M154 196h26M189 196h8M257 196h9M359 196h9M163 197h34M257 197h9M351 197h17M411 197h34M163 198h34M257 198h9M351 198h17M411 198h34M163 199h34M257 199h9M351 199h17M411 199h34M163 200h34M257 200h9M351 200h17M411 200h34M163 201h34M257 201h9M351 201h17M411 201h34M163 202h34M257 202h9M351 202h17M411 202h34M163 203h34M257 203h9M351 203h17M411 203h34M163 204h34M257 204h9M351 204h17M411 204h34M163 205h34M257 205h9M351 205h17M411 205h34M171 206h26M248 206h9M351 206h8M394 206h26M171 207h26M248 207h9M351 207h8M394 207h26M171 208h26M248 208h9M351 208h8M394 208h26M171 209h26M248 209h9M351 209h8M394 209h26M171 210h26M248 210h9M351 210h8M394 210h26M171 211h26M248 211h9M351 211h8M394 211h26M171 212h26M248 212h9M351 212h8M394 212h26M171 213h26M248 213h9M351 213h8M394 213h26M171 214h26M248 214h9M351 214h8M394 214h26M94 215h9M171 215h26M248 215h9M343 215h8M385 215h26M94 216h9M171 216h26M248 216h9M343 216h8M385 216h26M94 217h9M171 217h26M248 217h9M343 217h8M385 217h26M94 218h9M171 218h26M248 218h9M343 218h8M385 218h26M94 219h9M171 219h26M248 219h9M343 219h8M385 219h26M94 220h9M171 220h26M248 220h9M343 220h8M385 220h26M94 221h9M171 221h26M248 221h9M343 221h8M385 221h26M94 222h9M171 222h26M248 222h9M343 222h8M385 222h26M94 223h9M171 223h35M248 223h9M343 223h8M368 223h34M94 224h9M171 224h35M248 224h9M343 224h8M368 224h34M94 225h9M171 225h35M248 225h9M343 225h8M368 225h34M94 226h9M171 226h35M248 226h9M343 226h8M368 226h34M94 227h9M171 227h35M248 227h9M343 227h8M368 227h34M94 228h9M171 228h35M248 228h9M343 228h8M368 228h34M94 229h9M171 229h35M248 229h9M343 229h8M368 229h34M94 230h9M171 230h35M248 230h9M343 230h8M368 230h34M103 231h17M180 231h26M240 231h17M334 231h51M103 232h17M180 232h26M240 232h17M334 232h51M103 233h17M180 233h26M240 233h17M334 233h51M103 234h17M180 234h26M240 234h17M334 234h51M103 235h17M180 235h26M240 235h17M334 235h51M103 236h17M180 236h26M240 236h17M334 236h51M103 237h17M180 237h26M240 237h17M334 237h51M103 238h17M180 238h26M240 238h17M334 238h51M103 239h17M180 239h26M240 239h17M334 239h51M112 240h17M189 240h26M240 240h8M325 240h51M112 241h17M189 241h26M240 241h8M325 241h51M112 242h17M189 242h26M240 242h8M325 242h51M112 243h17M189 243h26M240 243h8M325 243h51M112 244h17M189 244h26M240 244h8M325 244h51M112 245h17M189 245h26M240 245h8M325 245h51M112 246h17M189 246h26M240 246h8M325 246h51M112 247h17M189 247h26M240 247h8M325 247h51M120 248h26M189 248h34M240 248h8M308 248h51M120 249h26M189 249h34M240 249h8M308 249h51M120 250h26M189 250h34M240 250h8M308 250h51M120 251h26M189 251h34M240 251h8M308 251h51M120 252h26M189 252h34M240 252h8M308 252h51M120 253h26M189 253h34M240 253h8M308 253h51M120 254h26M189 254h34M240 254h8M308 254h51M120 255h26M189 255h34M240 255h8M308 255h51M120 256h26M189 256h34M240 256h8M308 256h51M138 257h16M197 257h26M231 257h17M291 257h52M138 258h16M197 258h26M231 258h17M291 258h52M138 259h16M197 259h26M231 259h17M291 259h52M138 260h16M197 260h26M231 260h17M291 260h52M138 261h16M197 261h26M231 261h17M291 261h52M138 262h16M197 262h26M231 262h17M291 262h52M138 263h16M197 263h26M231 263h17M291 263h52M138 264h16M197 264h26M231 264h17M291 264h52M138 265h16M197 265h26M231 265h17M291 265h52M112 266h42M171 266h9M206 266h34M283 266h111M112 267h42M171 267h9M206 267h34M283 267h111M112 268h42M171 268h9M206 268h34M283 268h111M112 269h42M171 269h9M206 269h34M283 269h111M112 270h42M171 270h9M206 270h34M283 270h111M112 271h42M171 271h9M206 271h34M283 271h111M112 272h42M171 272h9M206 272h34M283 272h111M112 273h42M171 273h9M206 273h34M283 273h111M94 274h18M129 274h51M206 274h34M283 274h42M394 274h26M94 275h18M129 275h51M206 275h34M283 275h42M394 275h26M94 276h18M129 276h51M206 276h34M283 276h42M394 276h26M94 277h18M129 277h51M206 277h34M283 277h42M394 277h26M94 278h18M129 278h51M206 278h34M283 278h42M394 278h26M94 279h18M129 279h51M206 279h34M283 279h42M394 279h26M94 280h18M129 280h51M206 280h34M283 280h42M394 280h26M94 281h18M129 281h51M206 281h34M283 281h42M394 281h26M94 282h18M129 282h51M206 282h34M283 282h42M394 282h26M69 283h25M146 283h43M215 283h25M274 283h34M69 284h25M146 284h43M215 284h25M274 284h34M69 285h25M146 285h43M215 285h25M274 285h34M69 286h25M146 286h43M215 286h25M274 286h34M69 287h25M146 287h43M215 287h25M274 287h34M69 288h25M146 288h43M215 288h25M274 288h34M69 289h25M146 289h43M215 289h25M274 289h34M69 290h25M146 290h43M215 290h25M274 290h34M163 291h34M215 291h25M266 291h51M163 292h34M215 292h25M266 292h51M163 293h34M215 293h25M266 293h51M163 294h34M215 294h25M266 294h51M163 295h34M215 295h25M266 295h51M163 296h34M215 296h25M266 296h51M163 297h34M215 297h25M266 297h51M163 298h34M215 298h25M266 298h51M146 299h17M171 299h35M223 299h17M266 299h25M317 299h8M146 300h17M171 300h35M223 300h17M266 300h25M317 300h8M146 301h17M171 301h35M223 301h17M266 301h25M317 301h8M146 302h17M171 302h35M223 302h17M266 302h25M317 302h8M146 303h17M171 303h35M223 303h17M266 303h25M317 303h8M146 304h17M171 304h35M223 304h17M266 304h25M317 304h8M146 305h17M171 305h35M223 305h17M266 305h25M317 305h8M146 306h17M171 306h35M223 306h17M266 306h25M317 306h8M146 307h17M171 307h35M223 307h17M266 307h25M317 307h8M154 308h86M257 308h26M154 309h86M257 309h26M154 310h86M257 310h26M154 311h86M257 311h26M154 312h86M257 312h26M154 313h86M257 313h26M154 314h86M257 314h26M154 315h86M257 315h26M154 316h86M257 316h26M189 317h59M257 317h26M189 318h59M257 318h26M189 319h59M257 319h26M189 320h59M257 320h26M189 321h59M257 321h26M189 322h59M257 322h26M189 323h59M257 323h26M189 324h59M257 324h26M197 325h51M257 325h17M197 326h51M257 326h17M197 327h51M257 327h17M197 328h51M257 328h17M197 329h51M257 329h17M197 330h51M257 330h17M197 331h51M257 331h17M197 332h51M257 332h17M197 333h51M257 333h17M197 334h77M197 335h77M197 336h77M197 337h77M197 338h77M197 339h77M197 340h77M197 341h77M197 342h77M206 343h68M206 344h68M206 345h68M206 346h68M206 347h68M206 348h68M206 349h68M206 350h68M206 351h68M206 352h68M206 353h68M206 354h68M206 355h68M206 356h68M206 357h68M206 358h68M215 359h68M215 360h68M215 361h68M215 362h68M215 363h68M215 364h68M215 365h68M215 366h68M215 367h68M215 368h68M215 369h68M215 370h68M215 371h68M215 372h68M215 373h68M215 374h68M215 375h68M215 376h68M215 377h68M215 378h68M215 379h68M215 380h68M215 381h68M215 382h68M215 383h68M215 384h68M223 385h68M223 386h68M223 387h68M223 388h68M223 389h68M223 390h68M223 391h68M223 392h68M223 393h68M223 394h68M223 395h68M223 396h68M223 397h68M223 398h68M223 399h68M223 400h68M223 401h68M223 402h76M223 403h76M223 404h76M223 405h76M223 406h76M223 407h76M223 408h76M223 409h76M223 410h76M223 411h76M223 412h76M223 413h76M223 414h76M223 415h76M223 416h76M223 417h76M223 418h76M223 419h76M215 420h93M215 421h93M215 422h93M215 423h93M215 424h93M215 425h93M215 426h93M215 427h93M215 428h110M215 429h110M215 430h110M215 431h110M215 432h110M215 433h110M215 434h110M215 435h110M206 436h137M206 437h137M206 438h137M206 439h137M206 440h137M206 441h137M206 442h137M206 443h137M206 444h137M197 445h171M197 446h171M197 447h171M197 448h171M197 449h171M197 450h171M197 451h171M197 452h171M197 453h197M197 454h197M197 455h197M197 456h197M197 457h197M197 458h197M197 459h194M197 460h188M197 461h176" />
<path stroke="#ad3636" d="M266 112h8M266 113h8M266 114h8M266 115h8M266 116h8M266 117h8M266 118h8M266 119h8M274 120h9M274 121h9M274 122h9M274 123h9M274 124h9M274 125h9M274 126h9M274 127h9M274 128h9M120 129h9M274 129h9M120 130h9M274 130h9M120 131h9M274 131h9M120 132h9M274 132h9M120 133h9M274 133h9M120 134h9M274 134h9M120 135h9M274 135h9M120 136h9M274 136h9M120 137h9M274 137h9M120 138h9M274 138h9M120 139h9M274 139h9M120 140h9M274 140h9M120 141h9M274 141h9M120 142h9M274 142h9M120 143h9M274 143h9M120 144h9M274 144h9M120 145h9M274 145h9M197 180h9M197 181h9M197 182h9M197 183h9M197 184h9M197 185h9M197 186h9M197 187h9M197 188h9M197 189h9M402 189h18M197 190h9M402 190h18M197 191h9M402 191h18M197 192h9M402 192h18M197 193h9M402 193h18M197 194h9M402 194h18M197 195h9M402 195h18M197 196h9M402 196h18M402 197h9M402 198h9M402 199h9M402 200h9M402 201h9M402 202h9M402 203h9M402 204h9M402 205h9M299 231h9M299 232h9M299 233h9M299 234h9M299 235h9M299 236h9M299 237h9M299 238h9M299 239h9M299 240h18M299 241h18M299 242h18M299 243h18M299 244h18M299 245h18M299 246h18M299 247h18M299 248h9M299 249h9M299 250h9M299 251h9M299 252h9M299 253h9M299 254h9M299 255h9M299 256h9M154 257h9M154 258h9M154 259h9M154 260h9M154 261h9M154 262h9M154 263h9M154 264h9M154 265h9M78 266h16M154 266h9M394 266h8M78 267h16M154 267h9M394 267h8M78 268h16M154 268h9M394 268h8M78 269h16M154 269h9M394 269h8M78 270h16M154 270h9M394 270h8M78 271h16M154 271h9M394 271h8M78 272h16M154 272h9M394 272h8M78 273h16M154 273h9M394 273h8M86 274h8M86 275h8M86 276h8M86 277h8M86 278h8M86 279h8M86 280h8M86 281h8M86 282h8M291 385h8M291 386h8M291 387h8M291 388h8M291 389h8M291 390h8M291 391h8M291 392h8M291 393h8M291 394h17M291 395h17M291 396h17M291 397h17M291 398h17M291 399h17M291 400h17M291 401h17M299 402h9M299 403h9M299 404h9M299 405h9M299 406h9M299 407h9M299 408h9M299 409h9M299 410h9M299 411h9M299 412h9M299 413h9M299 414h9M299 415h9M299 416h9M299 417h9M299 418h9M299 419h9M359 428h9M359 429h9M359 430h9M359 431h9M359 432h9M359 433h9M359 434h9M359 435h9M171 436h9M359 436h17M171 437h9M359 437h17M171 438h9M359 438h17M171 439h9M359 439h17M171 440h9M359 440h17M171 441h9M359 441h17M171 442h9M359 442h17M171 443h9M359 443h17M171 444h9M359 444h17M163 445h17M368 445h8M163 446h17M368 446h8M163 447h17M368 447h8M163 448h17M368 448h8M163 449h17M368 449h8M163 450h17M368 450h8M163 451h17M368 451h8M163 452h17M368 452h8M163 453h26M163 454h26M163 455h26M163 456h26M163 457h26M163 458h26M163 459h26M163 460h26M163 461h26" />
<path stroke="rgba(159,159,159,0.09411764705882353)" d="M457 112h1" />
<path stroke="rgba(162,162,162,0.4196078431372549)" d="M457 113h1" />
<path stroke="rgba(160,160,160,0.7607843137254902)" d="M457 114h1" />
<path stroke="rgba(161,161,161,0.07450980392156863)" d="M55 115h1" />
<path stroke="rgba(162,162,162,0.08627450980392157)" d="M458 115h1" />
<path stroke="rgba(162,162,162,0.35294117647058826)" d="M55 116h1M458 116h1" />
<path stroke="rgba(161,161,161,0.6392156862745098)" d="M55 117h1" />
<path stroke="rgba(161,161,161,0.6470588235294118)" d="M458 117h1" />
<path stroke="rgba(161,161,161,0.9137254901960784)" d="M55 118h1M458 118h1" />
<path stroke="rgba(165,165,165,0.12156862745098039)" d="M53 123h1" />
<path stroke="rgba(159,159,159,0.12549019607843137)" d="M460 123h1" />
<path stroke="rgba(161,161,161,0.30980392156862746)" d="M53 124h1" />
<path stroke="rgba(163,163,163,0.27058823529411763)" d="M461 130h1" />
<path stroke="rgba(162,162,162,0.396078431372549)" d="M52 131h1M461 131h1" />
<path stroke="rgba(162,162,162,0.5137254901960784)" d="M52 132h1M461 132h1" />
<path stroke="rgba(161,161,161,0.6078431372549019)" d="M461 133h1" />
<path stroke="rgba(161,161,161,0.6784313725490196)" d="M52 134h1M461 134h1" />
<path stroke="rgba(255,255,255,0.9294117647058824)" d="M461 138h1" />
<path stroke="rgba(255,255,255,0.9411764705882353)" d="M461 139h1" />
<path stroke="rgba(255,255,255,0.9647058823529412)" d="M461 140h1" />
<path stroke="#315c2e" d="M112 283h17M325 283h69M112 284h17M325 284h69M112 285h17M325 285h69M112 286h17M325 286h69M112 287h17M325 287h69M112 288h17M325 288h69M112 289h17M325 289h69M112 290h17M325 290h69M94 291h52M248 291h9M334 291h128M94 292h52M248 292h9M334 292h128M94 293h52M248 293h9M334 293h128M94 294h52M248 294h9M334 294h128M94 295h52M248 295h9M334 295h128M94 296h52M248 296h9M334 296h128M94 297h52M248 297h9M334 297h128M94 298h52M248 298h9M334 298h128M69 299h69M334 299h128M69 300h69M334 300h128M69 301h69M334 301h128M69 302h69M334 302h128M69 303h69M334 303h128M69 304h69M334 304h128M69 305h69M334 305h128M69 306h69M334 306h128M69 307h69M334 307h128M61 308h85M299 308h163M61 309h85M299 309h163M61 310h85M299 310h163M61 311h85M299 311h163M61 312h85M299 312h163M61 313h85M299 313h163M61 314h85M299 314h163M61 315h85M299 315h163M61 316h85M299 316h163M52 317h102M291 317h52M359 317h103M52 318h102M291 318h52M359 318h103M52 319h102M291 319h52M359 319h103M52 320h102M291 320h52M359 320h103M52 321h102M291 321h52M359 321h103M52 322h102M291 322h52M359 322h103M52 323h102M291 323h52M359 323h103M52 324h102M291 324h52M359 324h103M52 325h137M291 325h52M351 325h111M52 326h137M291 326h52M351 326h111M52 327h137M291 327h52M351 327h111M52 328h137M291 328h52M351 328h111M52 329h137M291 329h52M351 329h111M52 330h137M291 330h52M351 330h111M52 331h137M291 331h52M351 331h111M52 332h137M291 332h52M351 332h111M52 333h137M291 333h52M351 333h111M52 334h137M283 334h51M351 334h34M394 334h68M52 335h137M283 335h51M351 335h34M394 335h68M52 336h137M283 336h51M351 336h34M394 336h68M52 337h137M283 337h51M351 337h34M394 337h68M52 338h137M283 338h51M351 338h34M394 338h68M52 339h137M283 339h51M351 339h34M394 339h68M52 340h137M283 340h51M351 340h34M394 340h68M52 341h137M283 341h51M351 341h34M394 341h68M52 342h137M283 342h51M351 342h34M394 342h68M52 343h145M283 343h42M343 343h119M52 344h145M283 344h42M343 344h119M52 345h145M283 345h42M343 345h119M52 346h145M283 346h42M343 346h119M52 347h145M283 347h42M343 347h119M52 348h145M283 348h42M343 348h119M52 349h145M283 349h42M343 349h119M52 350h145M283 350h42M343 350h119M52 351h145M359 351h103M52 352h145M359 352h103M52 353h145M359 353h103M52 354h145M359 354h103M52 355h145M359 355h103M52 356h145M359 356h103M52 357h145M359 357h103M52 358h145M359 358h103M78 359h51M402 359h60M78 360h51M402 360h60M78 361h51M402 361h60M78 362h51M402 362h60M78 363h51M402 363h60M78 364h51M402 364h60M78 365h51M402 365h60M78 366h51M402 366h60M78 367h51M402 367h60M445 368h17M445 369h17M445 370h17M445 371h17M445 372h17M445 373h16M445 374h16M445 375h16" />
<path stroke="#408c3b" d="M291 351h34M343 351h16M291 352h34M343 352h16M291 353h34M343 353h16M291 354h34M343 354h16M291 355h34M343 355h16M291 356h34M343 356h16M291 357h34M343 357h16M291 358h34M343 358h16M52 359h26M129 359h17M154 359h52M299 359h9M343 359h59M52 360h26M129 360h17M154 360h52M299 360h9M343 360h59M52 361h26M129 361h17M154 361h52M299 361h9M343 361h59M52 362h26M129 362h17M154 362h52M299 362h9M343 362h59M52 363h26M129 363h17M154 363h52M299 363h9M343 363h59M52 364h26M129 364h17M154 364h52M299 364h9M343 364h59M52 365h26M129 365h17M154 365h52M299 365h9M343 365h59M52 366h26M129 366h17M154 366h52M299 366h9M343 366h59M52 367h26M129 367h17M154 367h52M299 367h9M343 367h59M52 368h154M343 368h25M376 368h69M52 369h154M343 369h25M376 369h69M52 370h154M343 370h25M376 370h69M52 371h154M343 371h25M376 371h69M52 372h154M343 372h25M376 372h69M52 373h154M343 373h25M376 373h69M53 374h153M343 374h25M376 374h69M53 375h153M343 375h25M376 375h69M53 376h153M325 376h34M376 376h85M53 377h153M325 377h34M376 377h85M53 378h153M325 378h34M376 378h85M53 379h153M325 379h34M376 379h85M53 380h153M325 380h34M376 380h85M53 381h153M325 381h34M376 381h85M53 382h153M325 382h34M376 382h85M53 383h153M325 383h34M376 383h85M53 384h153M325 384h34M376 384h85M54 385h109M171 385h44M325 385h34M376 385h84M54 386h109M171 386h44M325 386h34M376 386h84M54 387h109M171 387h44M325 387h34M376 387h84M54 388h109M171 388h44M325 388h34M376 388h84M54 389h109M171 389h44M325 389h34M376 389h84M54 390h109M171 390h44M325 390h34M376 390h84M55 391h108M171 391h44M325 391h34M376 391h83M55 392h108M171 392h44M325 392h34M376 392h83M55 393h108M171 393h44M325 393h34M376 393h83M55 394h108M180 394h35M325 394h34M376 394h83M56 395h107M180 395h35M325 395h34M376 395h82M56 396h107M180 396h35M325 396h34M376 396h82M56 397h107M180 397h35M325 397h34M376 397h82M57 398h106M180 398h35M325 398h34M376 398h81M57 399h106M180 399h35M325 399h34M376 399h81M57 400h106M180 400h35M325 400h34M376 400h81M58 401h105M180 401h35M325 401h34M376 401h80M58 402h105M180 402h35M334 402h17M385 402h71M58 403h105M180 403h35M334 403h17M385 403h71M59 404h104M180 404h35M334 404h17M385 404h70M59 405h104M180 405h35M334 405h17M385 405h70M59 406h104M180 406h35M334 406h17M385 406h70M60 407h103M180 407h35M334 407h17M385 407h69M60 408h103M180 408h35M334 408h17M385 408h69M61 409h102M180 409h35M334 409h17M385 409h68M61 410h102M180 410h35M334 410h17M385 410h68M62 411h92M189 411h26M385 411h67M62 412h92M189 412h26M385 412h67M63 413h91M189 413h26M385 413h66M63 414h91M189 414h26M385 414h66M64 415h90M189 415h26M385 415h65M64 416h90M189 416h26M385 416h65M65 417h89M189 417h26M385 417h64M66 418h88M189 418h26M385 418h63M66 419h88M189 419h26M385 419h63M67 420h87M197 420h9M394 420h53M68 421h86M197 421h9M394 421h52M68 422h86M197 422h9M394 422h52M69 423h85M197 423h9M394 423h51M70 424h84M197 424h9M394 424h50M70 425h84M197 425h9M394 425h50M71 426h83M197 426h9M394 426h49M72 427h82M197 427h9M394 427h48M73 428h73M394 428h47M74 429h72M394 429h46M74 430h72M394 430h46M75 431h71M394 431h45M76 432h70M394 432h44M77 433h69M394 433h43M78 434h68M394 434h42M79 435h67M394 435h41M80 436h66M394 436h40M81 437h65M394 437h39M82 438h64M394 438h38M83 439h63M394 439h37M85 440h61M394 440h35M86 441h60M394 441h34M87 442h59M394 442h33M88 443h58M394 443h32M90 444h56M394 444h30M91 445h55M402 445h21M93 446h53M402 446h19M94 447h52M402 447h18M96 448h50M402 448h16M97 449h49M402 449h15M99 450h47M402 450h13M101 451h45M402 451h11M103 452h43M402 452h9M105 453h33M402 453h7M107 454h31M402 454h5M110 455h28M402 455h2M113 456h25M116 457h22M119 458h19M123 459h15M129 460h9" />
<path stroke="rgba(49,92,46,0.9647058823529412)" d="M461 373h1" />
<path stroke="rgba(63,141,59,0.9607843137254902)" d="M52 374h1M441 428h1" />
<path stroke="rgba(49,92,46,0.9411764705882353)" d="M461 374h1" />
<path stroke="rgba(64,140,60,0.9411764705882353)" d="M52 375h1M58 404h1M455 404h1M109 455h1M404 455h1" />
<path stroke="rgba(49,93,46,0.9294117647058824)" d="M461 375h1" />
<path stroke="rgba(63,141,59,0.8823529411764706)" d="M52 376h1M461 376h1M60 409h1" />
<path stroke="rgba(64,140,59,0.8313725490196079)" d="M52 377h1" />
<path stroke="rgba(64,139,60,0.8392156862745098)" d="M461 377h1M90 445h1M423 445h1" />
<path stroke="rgba(64,140,59,0.7490196078431373)" d="M52 378h1M56 399h1M433 437h1" />
<path stroke="rgba(64,139,58,0.7529411764705882)" d="M461 378h1M114 457h1M135 461h1" />
<path stroke="rgba(63,140,59,0.6784313725490196)" d="M52 379h1M461 379h1M134 461h1" />
<path stroke="rgba(65,141,60,0.6039215686274509)" d="M52 380h1" />
<path stroke="rgba(64,140,59,0.6078431372549019)" d="M461 380h1" />
<path stroke="rgba(64,140,58,0.5137254901960784)" d="M52 381h1M461 381h1" />
<path stroke="rgba(63,139,58,0.396078431372549)" d="M52 382h1M461 382h1" />
<path stroke="rgba(66,139,58,0.25882352941176473)" d="M52 383h1M421 447h1" />
<path stroke="rgba(63,140,59,0.27058823529411763)" d="M461 383h1" />
<path stroke="rgba(67,143,60,0.13333333333333333)" d="M52 384h1M129 461h1" />
<path stroke="rgba(64,142,57,0.1411764705882353)" d="M461 384h1" />
<path stroke="rgba(51,153,51,0.0196078431372549)" d="M52 385h1M461 385h1M62 415h1M451 415h1M128 461h1" />
<path stroke="rgba(64,140,59,0.9882352941176471)" d="M53 385h1M460 385h1M57 401h1M456 401h1M112 456h1M128 460h1" />
<path stroke="rgba(64,140,59,0.8470588235294118)" d="M53 386h1M66 420h1" />
<path stroke="rgba(64,140,58,0.8549019607843137)" d="M460 386h1M71 427h1M86 442h1M427 442h1" />
<path stroke="rgba(64,140,60,0.6705882352941176)" d="M53 387h1M460 387h1M126 460h1" />
<path stroke="rgba(65,140,59,0.49411764705882355)" d="M53 388h1M460 388h1" />
<path stroke="rgba(65,139,58,0.30980392156862746)" d="M53 389h1" />
<path stroke="rgba(63,139,60,0.3176470588235294)" d="M460 389h1M97 450h1M416 450h1" />
<path stroke="rgba(66,140,58,0.12156862745098039)" d="M53 390h1M123 460h1" />
<path stroke="rgba(64,143,56,0.12549019607843137)" d="M460 390h1" />
<path stroke="rgba(64,140,59,0.9058823529411765)" d="M54 391h1M102 452h1M122 459h1" />
<path stroke="rgba(64,140,59,0.8941176470588236)" d="M459 391h1M62 413h1M451 413h1M413 451h1" />
<path stroke="rgba(64,141,59,0.6823529411764706)" d="M54 392h1" />
<path stroke="rgba(65,140,59,0.6666666666666666)" d="M459 392h1M117 458h1" />
<path stroke="rgba(63,140,59,0.44313725490196076)" d="M54 393h1M120 459h1" />
<path stroke="rgba(64,140,60,0.43529411764705883)" d="M459 393h1M101 452h1M412 452h1" />
<path stroke="rgba(66,138,61,0.19607843137254902)" d="M54 394h1M459 394h1M455 406h1M424 445h1M406 455h1" />
<path stroke="rgba(128,128,0,0.00784313725490196)" d="M54 395h1M459 395h1M454 409h1M104 454h1M118 459h1" />
<path stroke="rgba(63,140,59,0.9137254901960784)" d="M55 395h1M458 395h1" />
<path stroke="rgba(64,139,59,0.6392156862745098)" d="M55 396h1" />
<path stroke="rgba(63,141,59,0.6470588235294118)" d="M458 396h1" />
<path stroke="rgba(65,139,60,0.35294117647058826)" d="M55 397h1M458 397h1" />
<path stroke="rgba(67,134,54,0.07450980392156863)" d="M55 398h1" />
<path stroke="rgba(63,140,59,0.9921568627450981)" d="M56 398h1M457 398h1M115 457h1" />
<path stroke="rgba(70,139,58,0.08627450980392157)" d="M458 398h1" />
<path stroke="rgba(64,141,59,0.7607843137254902)" d="M457 399h1" />
<path stroke="rgba(63,141,58,0.4117647058823529)" d="M56 400h1M414 451h1" />
<path stroke="rgba(64,141,60,0.4196078431372549)" d="M457 400h1" />
<path stroke="rgba(67,144,55,0.09019607843137255)" d="M56 401h1M112 457h1" />
<path stroke="rgba(64,138,64,0.09411764705882353)" d="M457 401h1" />
<path stroke="rgba(64,140,58,0.7372549019607844)" d="M57 402h1M96 449h1M111 456h1" />
<path stroke="rgba(63,140,59,0.7411764705882353)" d="M456 402h1M80 437h1M402 456h1" />
<path stroke="rgba(64,140,59,0.37254901960784315)" d="M57 403h1" />
<path stroke="rgba(63,139,58,0.3803921568627451)" d="M456 403h1" />
<path stroke="rgba(77,128,51,0.0392156862745098)" d="M57 404h1M60 411h1M453 411h1M448 420h1M67 423h1M446 423h1M75 433h1M438 433h1M90 446h1M423 446h1M420 448h1M102 453h1M404 456h1" />
<path stroke="rgba(70,139,70,0.043137254901960784)" d="M456 404h1M411 453h1" />
<path stroke="rgba(65,139,60,0.5882352941176471)" d="M58 405h1M455 405h1M74 431h1M439 431h1M405 455h1" />
<path stroke="rgba(64,138,58,0.18823529411764706)" d="M58 406h1M68 424h1M445 424h1M442 428h1M89 445h1" />
<path stroke="rgba(64,140,59,0.7803921568627451)" d="M59 407h1M454 407h1M77 434h1M434 436h1" />
<path stroke="rgba(65,139,59,0.33725490196078434)" d="M59 408h1M72 429h1" />
<path stroke="rgba(63,141,60,0.3333333333333333)" d="M454 408h1M408 454h1" />
<path stroke="rgba(64,128,64,0.01568627450980392)" d="M59 409h1M432 439h1" />
<path stroke="rgba(64,140,59,0.8588235294117647)" d="M453 409h1M98 450h1M415 450h1" />
<path stroke="rgba(65,139,58,0.43137254901960786)" d="M60 410h1M61 412h1" />
<path stroke="rgba(63,140,58,0.42745098039215684)" d="M453 410h1M103 453h1M410 453h1" />
<path stroke="rgba(64,140,59,0.9098039215686274)" d="M61 411h1M452 411h1M411 452h1" />
<path stroke="rgba(64,139,59,0.4392156862745098)" d="M452 412h1" />
<path stroke="rgba(64,128,64,0.03137254901960784)" d="M61 413h1M452 413h1M65 420h1M100 452h1M413 452h1" />
<path stroke="rgba(64,140,59,0.40784313725490196)" d="M62 414h1M99 451h1" />
<path stroke="rgba(65,140,60,0.41568627450980394)" d="M451 414h1M113 457h1" />
<path stroke="rgba(64,140,59,0.8431372549019608)" d="M63 415h1M445 423h1" />
<path stroke="rgba(63,140,59,0.8509803921568627)" d="M450 415h1M127 460h1" />
<path stroke="rgba(65,139,58,0.29411764705882354)" d="M63 416h1M450 416h1" />
<path stroke="rgba(64,139,59,0.7176470588235294)" d="M64 417h1" />
<path stroke="rgba(63,141,59,0.7254901960784313)" d="M449 417h1" />
<path stroke="rgba(64,140,57,0.1568627450980392)" d="M64 418h1" />
<path stroke="rgba(64,140,59,0.9803921568627451)" d="M65 418h1M448 418h1M95 448h1" />
<path stroke="rgba(67,140,61,0.16470588235294117)" d="M449 418h1M95 449h1M418 449h1" />
<path stroke="rgba(64,139,60,0.5176470588235295)" d="M65 419h1" />
<path stroke="rgba(63,140,60,0.5372549019607843)" d="M448 419h1" />
<path stroke="rgba(63,140,59,0.8666666666666667)" d="M447 420h1M104 453h1M409 453h1" />
<path stroke="rgba(63,138,59,0.23921568627450981)" d="M66 421h1" />
<path stroke="rgba(64,140,59,0.996078431372549)" d="M67 421h1M446 421h1M73 429h1M440 429h1M84 440h1M429 440h1M92 446h1M421 446h1" />
<path stroke="rgba(65,141,61,0.2627450980392157)" d="M447 421h1" />
<path stroke="rgba(64,141,59,0.5764705882352941)" d="M67 422h1" />
<path stroke="rgba(63,140,58,0.5843137254901961)" d="M446 422h1M91 446h1M422 446h1M108 455h1" />
<path stroke="rgba(63,140,59,0.8352941176470589)" d="M68 423h1" />
<path stroke="rgba(63,140,59,0.9764705882352941)" d="M69 424h1M444 424h1M424 444h1" />
<path stroke="rgba(65,141,58,0.4470588235294118)" d="M69 425h1" />
<path stroke="rgba(63,139,59,0.4588235294117647)" d="M444 425h1M83 440h1" />
<path stroke="rgba(0,255,0,0.00392156862745098)" d="M69 426h1M444 426h1M87 444h1M426 444h1" />
<path stroke="rgba(63,140,59,0.6941176470588235)" d="M70 426h1M75 432h1M438 432h1M87 443h1" />
<path stroke="rgba(63,139,59,0.7098039215686275)" d="M443 426h1" />
<path stroke="rgba(68,136,51,0.058823529411764705)" d="M70 427h1M437 434h1M77 435h1M86 443h1" />
<path stroke="rgba(64,140,59,0.8745098039215686)" d="M442 427h1" />
<path stroke="rgba(71,142,57,0.07058823529411765)" d="M443 427h1M436 435h1" />
<path stroke="rgba(65,142,59,0.16862745098039217)" d="M71 428h1" />
<path stroke="rgba(64,140,59,0.9568627450980393)" d="M72 428h1M428 441h1" />
<path stroke="rgba(64,141,59,0.3411764705882353)" d="M441 429h1" />
<path stroke="rgba(64,140,60,0.47058823529411764)" d="M73 430h1M440 430h1" />
<path stroke="rgba(85,170,85,0.011764705882352941)" d="M74 432h1M439 432h1M81 439h1M409 454h1" />
<path stroke="rgba(64,140,59,0.7450980392156863)" d="M76 433h1M417 449h1" />
<path stroke="rgba(64,141,59,0.7686274509803922)" d="M437 433h1" />
<path stroke="rgba(64,149,64,0.047058823529411764)" d="M76 434h1M79 437h1M434 437h1" />
<path stroke="rgba(64,139,59,0.796078431372549)" d="M436 434h1" />
<path stroke="rgba(64,140,59,0.807843137254902)" d="M78 435h1M435 435h1" />
<path stroke="rgba(64,143,64,0.06274509803921569)" d="M78 436h1M427 443h1" />
<path stroke="rgba(64,140,59,0.7764705882352941)" d="M79 436h1" />
<path stroke="rgba(60,135,60,0.06666666666666667)" d="M435 436h1" />
<path stroke="rgba(57,142,57,0.03529411764705882)" d="M80 438h1M433 438h1M93 448h1M109 456h1" />
<path stroke="rgba(64,140,58,0.7019607843137254)" d="M81 438h1M432 438h1" />
<path stroke="rgba(64,140,59,0.592156862745098)" d="M82 439h1" />
<path stroke="rgba(64,139,59,0.596078431372549)" d="M431 439h1" />
<path stroke="rgba(65,140,58,0.4627450980392157)" d="M430 440h1" />
<path stroke="rgba(64,140,58,0.32941176470588235)" d="M84 441h1M429 441h1" />
<path stroke="rgba(64,140,59,0.9529411764705882)" d="M85 441h1" />
<path stroke="rgba(64,139,58,0.17254901960784313)" d="M85 442h1" />
<path stroke="rgba(62,142,57,0.17647058823529413)" d="M428 442h1" />
<path stroke="rgba(64,140,59,0.6980392156862745)" d="M426 443h1" />
<path stroke="rgba(64,141,59,0.4549019607843137)" d="M88 444h1M425 444h1" />
<path stroke="rgba(64,140,59,0.9725490196078431)" d="M89 444h1" />
<path stroke="rgba(63,141,59,0.2549019607843137)" d="M92 447h1" />
<path stroke="rgba(64,140,59,0.8705882352941177)" d="M93 447h1M420 447h1M137 461h1" />
<path stroke="rgba(64,141,58,0.5333333333333333)" d="M94 448h1M419 448h1" />
<path stroke="rgba(64,140,59,0.984313725490196)" d="M418 448h1" />
<path stroke="rgba(85,128,42,0.023529411764705882)" d="M98 451h1M415 451h1" />
<path stroke="rgba(64,140,60,0.8901960784313725)" d="M100 451h1" />
<path stroke="rgba(65,140,59,0.3215686274509804)" d="M105 454h1" />
<path stroke="rgba(63,140,60,0.7725490196078432)" d="M106 454h1M407 454h1" />
<path stroke="rgba(62,141,57,0.19215686274509805)" d="M107 455h1" />
<path stroke="rgba(64,141,58,0.3764705882352941)" d="M110 456h1M403 456h1M116 458h1" />
<path stroke="rgba(89,43,43,0.9882352941176471)" d="M401 456h1" />
<path stroke="rgba(89,43,43,0.9921568627450981)" d="M398 457h1" />
<path stroke="rgba(89,44,44,0.7568627450980392)" d="M399 457h1" />
<path stroke="rgba(89,43,43,0.41568627450980394)" d="M400 457h1" />
<path stroke="rgba(89,44,44,0.09019607843137255)" d="M401 457h1" />
<path stroke="rgba(61,146,61,0.08235294117647059)" d="M115 458h1" />
<path stroke="rgba(63,140,59,0.9294117647058824)" d="M118 458h1" />
<path stroke="rgba(89,43,43,0.9294117647058824)" d="M395 458h1" />
<path stroke="rgba(89,44,44,0.6666666666666666)" d="M396 458h1" />
<path stroke="rgba(90,42,42,0.3764705882352941)" d="M397 458h1" />
<path stroke="rgba(85,49,49,0.08235294117647059)" d="M398 458h1" />
<path stroke="rgba(65,140,60,0.2)" d="M119 459h1" />
<path stroke="rgba(64,140,58,0.6862745098039216)" d="M121 459h1" />
<path stroke="rgba(0,0,0,0.9058823529411765)" d="M391 459h1" />
<path stroke="rgba(0,0,0,0.6901960784313725)" d="M392 459h1" />
<path stroke="rgba(0,0,0,0.44313725490196076)" d="M393 459h1" />
<path stroke="rgba(90,45,45,0.2)" d="M394 459h1" />
<path stroke="rgba(128,0,0,0.00784313725490196)" d="M395 459h1" />
<path stroke="rgba(64,140,61,0.3137254901960784)" d="M124 460h1" />
<path stroke="rgba(63,141,59,0.49019607843137253)" d="M125 460h1" />
<path stroke="rgba(0,0,0,0.9882352941176471)" d="M385 460h1" />
<path stroke="rgba(0,0,0,0.8588235294117647)" d="M386 460h1" />
<path stroke="rgba(0,0,0,0.6941176470588235)" d="M387 460h1" />
<path stroke="rgba(0,0,0,0.5176470588235295)" d="M388 460h1" />
<path stroke="rgba(0,0,0,0.32941176470588235)" d="M389 460h1" />
<path stroke="rgba(0,0,0,0.12549019607843137)" d="M390 460h1" />
<path stroke="rgba(64,139,60,0.26666666666666666)" d="M130 461h1" />
<path stroke="rgba(64,140,59,0.39215686274509803)" d="M131 461h1" />
<path stroke="rgba(65,139,59,0.5098039215686274)" d="M132 461h1" />
<path stroke="rgba(63,140,58,0.6)" d="M133 461h1" />
<path stroke="rgba(64,140,59,0.8274509803921568)" d="M136 461h1" />
<path stroke="rgba(89,43,43,0.9333333333333333)" d="M138 461h2" />
<path stroke="rgba(90,43,43,0.9607843137254902)" d="M140 461h1" />
<path stroke="rgba(0,0,0,0.9607843137254902)" d="M373 461h1" />
<path stroke="rgba(0,0,0,0.9333333333333333)" d="M374 461h2" />
<path stroke="rgba(0,0,0,0.8705882352941177)" d="M376 461h1" />
<path stroke="rgba(0,0,0,0.8274509803921568)" d="M377 461h1" />
<path stroke="rgba(0,0,0,0.7529411764705882)" d="M378 461h1" />
<path stroke="rgba(0,0,0,0.6784313725490196)" d="M379 461h1" />
<path stroke="rgba(0,0,0,0.6)" d="M380 461h1" />
<path stroke="rgba(0,0,0,0.5098039215686274)" d="M381 461h1" />
<path stroke="rgba(0,0,0,0.39215686274509803)" d="M382 461h1" />
<path stroke="rgba(0,0,0,0.26666666666666666)" d="M383 461h1" />
<path stroke="rgba(0,0,0,0.1411764705882353)" d="M384 461h1" />
<path stroke="rgba(0,0,0,0.0196078431372549)" d="M385 461h1" />
</svg>