<svg xmlns="http://www.w3.org/2000/svg" viewBox="0 -0.5 48 48" shape-rendering="crispEdges">
<metadata>Made with Pixels to Svg https://codepen.io/shshaw/pen/XbxvNj</metadata>
<path stroke="#a1a1a1" d="M0 0h17M18 0h11M32 0h16M0 1h17M19 1h6M26 1h2M33 1h15M0 2h25M26 2h22M0 3h8M9 3h6M16 3h9M27 3h9M43 3h5M0 4h5M9 4h15M27 4h7M46 4h2M0 5h4M10 5h9M20 5h4M27 5h10M42 5h6M0 6h3M12 6h7M20 6h4M28 6h20M0 7h7M13 7h6M21 7h3M28 7h20M0 8h7M13 8h5M21 8h3M28 8h5M36 8h12M0 9h6M12 9h5M21 9h2M29 9h3M37 9h4M42 9h6M0 10h5M12 10h5M21 10h3M29 10h8M38 10h3M43 10h2M0 11h6M12 11h5M21 11h3M29 11h2M32 11h4M39 11h2M43 11h1M0 12h7M13 12h4M21 12h3M28 12h3M32 12h4M39 12h2M43 12h5M0 13h8M14 13h2M21 13h3M27 13h8M38 13h2M44 13h4M2 14h8M15 14h1M21 14h2M27 14h8M38 14h2M44 14h4M3 15h7M20 15h3M26 15h2M29 15h6M38 15h1M45 15h3M7 16h4M20 16h3M26 16h1M29 16h6M38 16h1M46 16h2M5 17h7M19 17h4M26 17h1M30 17h4M47 17h1M0 18h2M3 18h2M6 18h7M19 18h3M25 18h2M31 18h3M37 18h1M46 18h2M0 19h2M3 19h1M7 19h6M19 19h3M25 19h2M32 19h1M43 19h5M0 20h2M8 20h5M19 20h3M25 20h2M42 20h4M0 21h2M10 21h1M19 21h2M25 21h2M41 21h4M0 22h2M14 22h1M20 22h1M24 22h3M39 22h1M42 22h6M0 23h2M6 23h1M14 23h1M24 23h3M38 23h1M42 23h6M0 24h2M15 24h1M24 24h2M43 24h5M0 25h1M16 25h1M24 25h2M43 25h5M0 26h1M16 26h1M23 26h2M44 26h4M0 27h1M17 27h1M23 27h1M43 27h5M0 28h2M0 29h2M0 30h1" />
<path stroke="#ffffff" d="M17 0h1M29 0h3M17 1h2M28 1h5M36 3h7M5 4h3M34 4h12M4 5h4M37 5h5M3 6h4M10 6h1M33 8h3M32 9h5M45 10h3M44 11h1M46 11h2M0 14h1M0 15h3M0 16h7M0 17h5M46 20h2M45 21h3" />
<path stroke="#592b2b" d="M25 1h1M25 2h1M8 3h1M15 3h1M25 3h2M8 4h1M24 4h1M26 4h1M8 5h2M19 5h1M24 5h1M26 5h1M7 6h3M11 6h1M19 6h1M24 6h1M27 6h1M7 7h1M9 7h2M12 7h1M19 7h2M24 7h1M27 7h1M7 8h1M10 8h1M12 8h1M18 8h1M20 8h1M24 8h1M27 8h1M6 9h1M11 9h1M17 9h1M20 9h1M23 9h2M27 9h2M41 9h1M5 10h1M11 10h1M17 10h1M20 10h1M24 10h1M28 10h1M37 10h1M41 10h2M6 11h1M11 11h1M17 11h1M20 11h1M24 11h1M28 11h1M31 11h1M36 11h1M38 11h1M41 11h2M45 11h1M7 12h1M12 12h1M17 12h1M20 12h1M24 12h1M27 12h1M31 12h1M36 12h1M38 12h1M41 12h2M8 13h2M13 13h1M16 13h1M20 13h1M24 13h1M26 13h1M35 13h1M37 13h1M40 13h1M42 13h2M1 14h1M10 14h1M14 14h1M16 14h1M19 14h2M23 14h1M26 14h1M35 14h1M37 14h1M40 14h1M43 14h1M10 15h1M14 15h2M19 15h1M23 15h1M25 15h1M28 15h1M35 15h1M37 15h1M39 15h2M43 15h2M11 16h1M15 16h1M19 16h1M23 16h1M25 16h1M27 16h2M35 16h1M37 16h1M39 16h1M45 16h1M12 17h1M18 17h1M23 17h1M25 17h1M27 17h3M34 17h1M37 17h3M46 17h1M2 18h1M5 18h1M13 18h1M18 18h1M22 18h1M24 18h1M27 18h1M29 18h2M34 18h1M36 18h1M38 18h1M43 18h3M2 19h1M4 19h1M6 19h1M13 19h1M17 19h2M22 19h1M24 19h1M27 19h1M30 19h2M33 19h1M35 19h4M42 19h1M2 20h3M6 20h2M13 20h1M18 20h1M22 20h1M24 20h1M27 20h1M31 20h3M35 20h2M41 20h1M2 21h1M4 21h2M8 21h2M11 21h4M18 21h1M21 21h1M24 21h1M27 21h1M39 21h2M2 22h1M4 22h3M9 22h3M13 22h1M15 22h1M19 22h1M21 22h1M23 22h1M27 22h1M38 22h1M40 22h2M2 23h1M5 23h1M7 23h1M13 23h1M15 23h1M20 23h2M23 23h1M27 23h1M36 23h2M39 23h3M2 24h1M5 24h5M13 24h2M16 24h1M20 24h1M23 24h1M26 24h2M34 24h6M41 24h2M1 25h1M15 25h1M17 25h1M22 25h2M26 25h1M42 25h1M1 26h1M7 26h2M15 26h1M17 26h1M22 26h1M25 26h2M32 26h8M43 26h1M1 27h1M5 27h2M9 27h2M16 27h1M18 27h1M22 27h1M24 27h2M30 27h2M40 27h3M2 28h3M11 28h2M17 28h2M22 28h1M24 28h1M31 28h2M10 29h1M13 29h1M18 29h2M22 29h3M28 29h3M32 29h1M11 30h1M22 30h2M27 30h2M12 31h4M23 31h1M27 31h1M34 31h2M16 32h1M23 32h1M26 32h2M34 32h1M16 33h1M26 33h1M33 33h2M39 33h1M17 34h1M26 34h1M32 34h2M17 35h1M26 35h2M32 35h2M11 36h1M18 36h1M27 36h2M30 36h2M33 36h1M18 37h1M28 37h3M32 37h2M37 37h1M18 38h1M31 38h1M36 38h2M13 39h1M19 39h1M31 39h1M36 39h2M13 40h2M19 40h1M31 40h1M36 40h2M13 41h2M19 41h1M31 41h2M35 41h1M37 41h2M12 42h1M15 42h1M19 42h1M32 42h4M38 42h1M12 43h1M15 43h2M18 43h1M33 43h2M38 43h2M11 44h1M17 44h2M33 44h2M39 44h1M11 45h1M39 45h1M11 46h1M39 46h2M10 47h1M40 47h1" />
<path stroke="#823737" d="M25 4h1M25 5h1M25 6h2M8 7h1M26 7h1M8 8h2M19 8h1M7 9h1M9 9h1M19 9h1M9 10h1M19 10h1M19 11h1M19 12h1M18 13h2M41 13h1M18 14h1M41 14h2M18 15h1M41 15h2M18 16h1M40 16h1M43 16h2M17 17h1M40 17h1M17 18h1M28 18h1M39 18h1M28 19h2M28 20h3M3 21h1M28 21h1M30 21h3M3 22h1M12 22h1M28 22h1M31 22h1M3 23h2M11 23h2M28 23h1M3 24h2M40 24h1M2 25h1M5 25h2M13 25h1M41 25h1M2 26h2M32 36h1M27 37h1M31 37h1M27 38h4M29 39h2M30 40h1M30 41h1M36 41h1M13 42h2M30 42h2M36 42h2M13 43h2M30 43h3M35 43h3M12 44h5M32 44h1M35 44h1M37 44h2M12 45h2M15 45h3M34 45h2M38 45h1M12 46h1M15 46h2M38 46h1M11 47h2M16 47h1" />
<path stroke="#000000" d="M11 7h1M11 8h1M25 8h1M10 9h1M18 9h1M25 9h1M6 10h2M10 10h1M18 10h1M25 10h1M27 10h1M7 11h4M18 11h1M25 11h3M37 11h1M8 12h4M18 12h1M25 12h2M37 12h1M10 13h3M17 13h1M25 13h1M36 13h1M11 14h3M17 14h1M24 14h2M36 14h1M11 15h3M16 15h1M24 15h1M36 15h1M12 16h3M16 16h1M24 16h1M36 16h1M13 17h4M24 17h1M35 17h2M42 17h4M14 18h3M23 18h1M35 18h1M40 18h3M5 19h1M14 19h3M23 19h1M34 19h1M39 19h3M5 20h1M14 20h4M23 20h1M34 20h1M37 20h4M6 21h2M15 21h3M22 21h2M33 21h6M7 22h2M16 22h3M22 22h1M32 22h6M8 23h3M16 23h4M22 23h1M30 23h6M10 24h2M17 24h3M21 24h2M28 24h6M7 25h5M14 25h1M18 25h4M27 25h13M5 26h2M9 26h6M18 26h4M27 26h5M40 26h3M2 27h3M11 27h5M19 27h3M26 27h4M13 28h4M19 28h3M25 28h6M11 29h2M14 29h4M20 29h2M25 29h3M31 29h1M12 30h10M24 30h3M16 31h7M24 31h3M17 32h6M24 32h2M17 33h9M18 34h8M18 35h8M19 36h8M19 37h8M19 38h8M20 39h8M20 40h8M20 41h9M20 42h9M19 43h11M19 44h13M18 45h16M17 46h20M17 47h23" />
<path stroke="#ad3636" d="M25 7h1M26 8h1M8 9h1M26 9h1M8 10h1M26 10h1M17 15h1M17 16h1M41 16h2M41 17h1M29 21h1M29 22h2M29 23h1M12 24h1M3 25h2M12 25h1M40 25h1M4 26h1M28 39h1M28 40h2M29 41h1M29 42h1M36 44h1M14 45h1M36 45h2M13 46h2M37 46h1M13 47h3" />
<path stroke="#315c2e" d="M7 27h2M32 27h8M5 28h6M23 28h1M33 28h15M2 29h8M33 29h15M1 30h10M29 30h19M0 31h12M28 31h6M36 31h12M0 32h16M28 32h6M35 32h13M0 33h16M27 33h6M35 33h4M40 33h8M0 34h17M27 34h5M34 34h14M0 35h17M36 35h12M3 36h6M41 36h7M46 37h2" />
<path stroke="#408c3b" d="M28 35h4M34 35h2M0 36h3M9 36h2M12 36h6M29 36h1M34 36h7M0 37h18M34 37h3M38 37h8M0 38h18M32 38h4M38 38h10M0 39h13M14 39h5M32 39h4M38 39h10M0 40h13M15 40h4M32 40h4M38 40h10M0 41h13M15 41h4M33 41h2M39 41h9M0 42h12M16 42h3M39 42h9M0 43h12M17 43h1M40 43h8M0 44h11M40 44h8M0 45h11M40 45h8M0 46h11M41 46h7M0 47h10M41 47h7" />
</svg>